<?xml version="1.0" encoding="UTF-8" standalone="no"?>
<svg
   id="svg"
   version="1.1"
   width="96"
   height="96"
   viewBox="0 0 96 96"
   sodipodi:docname="Company logo.svg"
   inkscape:version="1.4.2 (f4327f4, 2025-05-13)"
   inkscape:export-filename="Company logo.png"
   inkscape:export-xdpi="96"
   inkscape:export-ydpi="96"
   xmlns:inkscape="http://www.inkscape.org/namespaces/inkscape"
   xmlns:sodipodi="http://sodipodi.sourceforge.net/DTD/sodipodi-0.dtd"
   xmlns="http://www.w3.org/2000/svg"
   xmlns:svg="http://www.w3.org/2000/svg">
  <defs
     id="defs1" />
  <sodipodi:namedview
     id="namedview1"
     pagecolor="#ffffff"
     bordercolor="#000000"
     borderopacity="0.25"
     inkscape:showpageshadow="2"
     inkscape:pageopacity="0.0"
     inkscape:pagecheckerboard="0"
     inkscape:deskcolor="#d1d1d1"
     inkscape:zoom="11.313708"
     inkscape:cx="45.961941"
     inkscape:cy="30.052038"
     inkscape:window-width="1916"
     inkscape:window-height="2041"
     inkscape:window-x="-9"
     inkscape:window-y="0"
     inkscape:window-maximized="0"
     inkscape:current-layer="svg" />
  <path
     id="path1"
     d="m 74.191746,-216.39978 c -0.214,0.191 -0.83,0.713 -1.367,1.16 -0.893,0.744 -0.843,0.738 0.586,-0.07 1.969,-1.113 1.866,-1.027 1.491,-1.249 -0.175,-0.103 -0.495,-0.032 -0.71,0.159 m 10.526,0.853 c 0.418,0.256 1.649,1.257 2.734,2.223 1.086,0.967 1.64,1.362 1.231,0.879 -0.41,-0.483 -0.608,-0.878 -0.441,-0.878 0.167,0 0.087,-0.262 -0.179,-0.582 -0.265,-0.32 -0.626,-0.493 -0.802,-0.384 -0.176,0.108 -0.595,-0.196 -0.932,-0.677 -0.337,-0.481 -0.613,-0.713 -0.613,-0.515 0,0.198 -0.211,0.15 -0.469,-0.108 -0.258,-0.258 -0.653,-0.459 -0.879,-0.446 -0.225,0.013 -0.068,0.232 0.35,0.488 m -14.432,2.04 c -0.644,0.529 -1.018,0.962 -0.831,0.963 0.188,0.001 0.1,0.309 -0.195,0.685 -0.488,0.622 -0.473,0.635 0.157,0.14 0.381,-0.299 0.612,-0.625 0.513,-0.724 -0.099,-0.099 0.292,-0.595 0.869,-1.104 1.385,-1.219 0.986,-1.188 -0.513,0.04 m 7.651,3.694 c 0.365,0.214 1.086,0.223 1.758,0.022 1.051,-0.314 1.003,-0.342 -0.62,-0.362 -1.257,-0.016 -1.581,0.081 -1.138,0.34 m 2.896,0.396 c -0.212,0.343 0.325,0.556 0.74,0.293 0.085,-0.054 0.569,0.252 1.075,0.681 0.917,0.776 0.917,0.776 -0.028,-0.293 -1.015,-1.15 -1.406,-1.298 -1.787,-0.681 m 9.93,4.198 c 0.171,2.345 0.293,2.205 0.509,-0.585 0.074,-0.958 -0.041,-1.66 -0.272,-1.661 -0.247,0 -0.338,0.864 -0.237,2.246 m -16.177,1.534 c 0.837,2.003 2.927,4.089 2.927,2.921 0,-0.198 -0.369,-0.456 -0.821,-0.574 -0.455,-0.119 -0.705,-0.401 -0.561,-0.634 0.143,-0.231 -0.014,-0.525 -0.349,-0.653 -0.335,-0.128 -0.511,-0.391 -0.392,-0.583 0.118,-0.193 0.03,-0.35 -0.198,-0.35 -0.227,0 -0.414,-0.351 -0.414,-0.781 0,-0.43 -0.178,-0.781 -0.395,-0.781 -0.231,0 -0.146,0.599 0.203,1.435 m 8.294,0.959 c -0.37,0.644 -0.85,1.062 -1.067,0.928 -0.217,-0.134 -0.394,-0.047 -0.394,0.193 0,0.24 -0.203,0.312 -0.451,0.158 -0.28,-0.173 -0.345,-0.107 -0.172,0.174 0.2,0.322 0.496,0.336 1.037,0.046 0.793,-0.424 2.15,-2.241 1.878,-2.513 -0.087,-0.087 -0.461,0.369 -0.831,1.014 m -4.488,2.172 c 0.376,0.098 0.991,0.098 1.367,0 0.376,-0.098 0.068,-0.179 -0.684,-0.179 -0.752,0 -1.059,0.081 -0.683,0.179 m 10.449,1.684 c -0.459,0.644 -0.747,1.172 -0.639,1.172 0.107,0 0.571,-0.528 1.03,-1.172 0.458,-0.645 0.746,-1.172 0.639,-1.172 -0.108,0 -0.571,0.527 -1.03,1.172 m -19.816,0.036 c 0.38,0.221 0.623,0.523 0.539,0.671 -0.084,0.148 0.389,0.709 1.051,1.246 1.338,1.085 1.202,0.712 -0.41,-1.125 -0.588,-0.671 -1.25,-1.214 -1.471,-1.207 -0.22,0.006 -0.09,0.193 0.291,0.415 m 3.8,3.555 c 0.537,0.514 1.24,0.928 1.563,0.918 0.322,-0.009 0.537,0.216 0.478,0.5 -0.059,0.285 0.076,0.404 0.3,0.266 0.601,-0.371 0.199,-0.798 -1.655,-1.759 l -1.662,-0.861 0.976,0.936 m 11.426,0.215 -1.269,0.632 v 7.133 c 0,3.923 0.157,7.23 0.349,7.349 0.393,0.243 0.891,-0.753 0.548,-1.096 -0.372,-0.372 -0.181,-13.31 0.198,-13.437 0.442,-0.147 1.907,-1.242 1.639,-1.225 -0.108,0.007 -0.767,0.297 -1.465,0.644 m -9.08,2.248 c -0.259,0.781 -0.231,5.274 0.034,5.274 0.149,0 0.336,-0.22 0.415,-0.489 0.176,-0.599 -0.268,-5.331 -0.449,-4.785 m 17.291,0.822 c 0.129,0.129 -0.237,0.669 -0.814,1.2 l -1.049,0.965 1.254,-0.872 c 1.078,-0.749 1.389,-1.529 0.611,-1.529 -0.131,0 -0.132,0.106 -0.002,0.236 m 4.973,1.111 c 0,0.108 0.527,0.468 1.172,0.802 0.644,0.333 1.171,0.518 1.171,0.41 0,-0.107 -0.527,-0.468 -1.171,-0.801 -0.645,-0.333 -1.172,-0.518 -1.172,-0.411 m 39.986004,2.644 c -0.104,0.168 0.92,0.286 2.276,0.261 2.59,-0.048 2.438,-0.215 -0.397,-0.436 -0.929,-0.072 -1.775,0.007 -1.879,0.175 m 53.485,0.205 c 1.243,0.077 3.177,0.077 4.297,-0.002 1.12,-0.079 0.103,-0.142 -2.261,-0.141 -2.363,0.001 -3.279,0.065 -2.036,0.143 m 25.181,-0.002 c 1.128,0.079 2.974,0.079 4.102,0 1.127,-0.078 0.205,-0.143 -2.051,-0.143 -2.256,0 -3.179,0.065 -2.051,0.143 m -161.039004,0.5 c -0.135,0.218 -0.397,0.303 -0.582,0.189 -0.185,-0.114 -0.44,-0.041 -0.565,0.162 -0.464,0.751 0.484,0.771 1.159,0.024 0.384,-0.424 0.594,-0.772 0.466,-0.772 -0.128,0 -0.343,0.179 -0.478,0.397 m 48.601004,0.857 c 1.155,1.258 1.989,1.596 1.989,0.806 0,-0.13 -0.121,-0.117 -0.268,0.03 -0.147,0.147 -0.894,-0.307 -1.66,-1.009 l -1.393,-1.276 1.332,1.449 m 84.474,-0.673 c 0.073,0.4 0.524,1.159 1.004,1.685 0.479,0.527 0.776,1.111 0.66,1.299 -0.116,0.188 -0.014,0.341 0.226,0.341 0.24,0 0.327,0.177 0.193,0.394 -0.133,0.216 0.025,0.496 0.352,0.621 0.532,0.204 2.436,3.032 2.539,3.771 0.022,0.161 0.399,0.65 0.836,1.088 0.438,0.438 0.697,0.956 0.575,1.152 -0.121,0.197 0.141,0.55 0.583,0.787 0.442,0.236 0.7,0.597 0.574,0.801 -0.126,0.204 -0.033,0.371 0.207,0.371 0.24,0 0.311,0.203 0.158,0.451 -0.173,0.279 -0.107,0.345 0.172,0.172 0.403,-0.249 0.627,0.218 0.498,1.037 -0.026,0.161 0.14,0.293 0.367,0.293 0.228,0 0.288,0.203 0.135,0.451 -0.163,0.263 -0.108,0.345 0.131,0.197 0.39,-0.24 1.077,0.78 0.945,1.403 -0.034,0.161 0.124,0.293 0.352,0.293 0.227,0 0.304,0.177 0.17,0.393 -0.134,0.216 0.014,0.492 0.329,0.613 0.656,0.252 1.159,1.728 0.59,1.728 -0.208,0 -0.268,0.177 -0.134,0.393 0.133,0.217 -0.031,0.499 -0.366,0.627 -0.334,0.129 -0.522,0.373 -0.417,0.543 0.105,0.169 -0.083,0.413 -0.418,0.542 -0.334,0.128 -0.499,0.41 -0.365,0.627 0.134,0.216 0.057,0.393 -0.171,0.393 -0.227,0 -0.369,0.135 -0.316,0.3 0.144,0.442 -2.46,4.388 -2.896,4.388 -0.205,0 -0.28,0.149 -0.168,0.331 0.113,0.182 -0.106,0.66599 -0.487,1.07399 -0.38,0.409 -0.718,0.879 -0.751,1.046 -0.135,0.685 -1.426,2.573 -1.661,2.427 -0.14,-0.086 -0.256,0.055 -0.258,0.314 -0.005,0.618 -2.452,4.573 -2.829,4.573 -0.161,0 -0.292,0.256 -0.292,0.569 0,0.95 0.52,0.338 2.682,-3.153 2.237,-3.612 3.23,-5.181 7.267,-11.47499 l 2.628,-4.097 -1.814,-2.738 c -0.997,-1.506 -2.832,-4.321 -4.076,-6.254 -4.808,-7.473 -6.88,-10.472 -6.754,-9.771 m 11.486,2.642 c 3.048,4.718 3.164,4.868 3.164,4.076 0,-0.362 -0.157,-0.658 -0.348,-0.658 -0.192,0 -0.224,-0.203 -0.07,-0.451 0.172,-0.28 0.107,-0.345 -0.173,-0.172 -0.405,0.25 -0.628,-0.225 -0.493,-1.048 0.027,-0.167 -0.215,-0.406 -0.538,-0.529 -0.323,-0.124 -0.489,-0.384 -0.369,-0.578 0.12,-0.194 -0.056,-0.458 -0.391,-0.586 -0.334,-0.129 -0.511,-0.391 -0.392,-0.583 0.119,-0.193 0.03,-0.35 -0.198,-0.35 -0.227,0 -0.376,-0.132 -0.33,-0.293 0.154,-0.544 -0.888,-2.051 -1.418,-2.051 -0.315,0 0.308,1.292 1.556,3.223 m -63.292,15.705 c 0.008,10.19499 0.128,18.64999 0.266,18.78799 0.138,0.138 0.159,0.542 0.046,0.897 -0.177,0.555 -0.147,0.563 0.217,0.059 0.42,-0.584 0.572,-34.83399 0.164,-37.20699 -0.551,-3.209 -0.707,0.71 -0.693,17.463 m 7.816,-18.112 c 0.226,0.303 0.401,2.08 0.391,3.948 -0.011,1.868 0.12,3.259 0.29,3.09 0.591,-0.589 0.142,-7.185 -0.504,-7.398 -0.447,-0.147 -0.489,-0.061 -0.177,0.36 m 78.14,0.552 c -0.498,0.537 -1.852,2.483 -3.008,4.324 -1.157,1.842 -2.419,3.848 -2.804,4.459 -0.521,0.827 -0.58,1.185 -0.233,1.4 0.279,0.172 0.366,0.123 0.215,-0.121 -0.14,-0.226 0.02,-0.516 0.355,-0.644 0.334,-0.128 0.499,-0.411 0.365,-0.627 -0.134,-0.216 -0.047,-0.393 0.194,-0.393 0.24,0 0.327,-0.177 0.193,-0.394 -0.134,-0.216 0.031,-0.498 0.365,-0.627 0.335,-0.128 0.523,-0.372 0.418,-0.542 -0.105,-0.17 0.083,-0.414 0.418,-0.542 0.334,-0.128 0.51,-0.392 0.39,-0.586 -0.119,-0.194 0.056,-0.457 0.391,-0.586 0.335,-0.128 0.499,-0.41 0.365,-0.627 -0.133,-0.216 -0.027,-0.393 0.236,-0.393 0.263,0 0.363,-0.116 0.221,-0.258 -0.142,-0.142 0.095,-0.506 0.527,-0.808 0.432,-0.303 0.696,-0.695 0.586,-0.873 -0.11,-0.178 0.074,-0.428 0.409,-0.556 0.334,-0.129 0.499,-0.411 0.365,-0.627 -0.134,-0.217 -0.028,-0.394 0.236,-0.394 0.263,0 0.364,-0.114 0.224,-0.254 -0.14,-0.14 0.051,-0.486 0.423,-0.769 0.373,-0.283 0.538,-0.52 0.366,-0.527 -0.171,-0.007 -0.719,0.427 -1.217,0.965 m -147.241004,0.422 c -0.126,0.627 -0.178,2.063 -0.115,3.191 0.066,1.209 -0.051,2.05 -0.286,2.05 -0.237,0 -0.211,0.189 0.063,0.463 0.548,0.548 0.682,0.438 1.038,-0.853 0.216,-0.785 0.181,-0.861 -0.178,-0.391 -0.353,0.461 -0.386,0.337 -0.157,-0.586 0.44,-1.768 0.52,-3.839 0.173,-4.46 -0.224,-0.4 -0.373,-0.238 -0.538,0.586 m 137.404004,-0.288 c 0.154,0.248 0.093,0.451 -0.135,0.451 -0.227,0 -0.385,0.132 -0.351,0.293 0.132,0.623 -0.555,1.643 -0.945,1.402 -0.239,-0.148 -0.294,-0.065 -0.131,0.198 0.153,0.248 0.082,0.451 -0.158,0.451 -0.24,0 -0.335,0.165 -0.21,0.367 0.124,0.201 -0.085,0.547 -0.466,0.769 -0.38,0.222 -0.548,0.408 -0.372,0.415 0.176,0.006 -0.015,0.495 -0.424,1.086 -1.017,1.469 -1.485,2.353 -0.982,1.855 0.344,-0.34 3.794,-5.441 4.54,-6.711 0.149,-0.254 0.065,-0.589 -0.187,-0.744 -0.286,-0.177 -0.353,-0.113 -0.179,0.168 m -160.466004,1.447 c -1.674,1.508 -1.752,2.232 -0.1,0.933 0.866,-0.682 2.109,-2.341 1.731,-2.31 -0.062,0.005 -0.796,0.625 -1.631,1.377 m 54.804004,1.25 c 0.857,1.153 3.137,3.718 2.706,3.043 -0.143,-0.223 -0.266,-0.549 -0.273,-0.725 -0.007,-0.175 -0.451,-0.663 -0.987,-1.084 -0.535,-0.421 -1.084,-1.113 -1.218,-1.537 -0.135,-0.424 -0.421,-0.771 -0.636,-0.771 -0.215,0 -0.031,0.484 0.408,1.074 m -57.255004,1.167 c 0.139,0.224 -0.156,0.676 -0.655,1.003 -0.697,0.456 -1.316,1.834 -0.825,1.834 0.49,0 2.043,-2.742 1.681,-2.966 -0.264,-0.163 -0.348,-0.109 -0.201,0.129 m 10.708,0.666 c -0.376,0.275 -0.683,0.634 -0.683,0.797 0,0.164 0.22,0.116 0.488,-0.107 0.269,-0.223 0.62,-0.42 0.782,-0.439 0.161,-0.018 0.307,-0.135 0.325,-0.261 0.068,-0.475 -0.253,-0.472 -0.912,0.01 m 37.338,0.413 c 0,0.323 0.088,0.498 0.196,0.39 0.108,-0.108 0.562,0.111 1.009,0.486 0.592,0.496 0.556,0.39 -0.134,-0.39 -1.109,-1.254 -1.071,-1.237 -1.071,-0.486 m -40.188,2.247 -1.544,1.66 1.66,-1.544 c 1.544,-1.436 1.84,-1.777 1.544,-1.777 -0.063,0 -0.811,0.747 -1.66,1.661 m 146.054004,0.488 c 0.311,0.644 1.004,1.644 1.54,2.222 0.537,0.577 0.906,1.149 0.821,1.269 -0.085,0.121 -0.076,0.171 0.019,0.112 0.738,-0.461 2.156,-3.177 1.808,-3.465 -0.227,-0.187 -0.33,-0.226 -0.23,-0.087 0.276,0.386 -1.074,2.488 -1.598,2.488 -0.518,0 -1.1,-1.109 -0.978,-1.862 0.045,-0.272 -0.091,-0.448 -0.301,-0.39 -0.21,0.057 -0.666,-0.248 -1.014,-0.678 -0.591,-0.73 -0.596,-0.705 -0.067,0.391 m -134.512004,0.301 c 0,0.182 -0.176,0.222 -0.391,0.089 -0.214,-0.132 -0.39,-0.044 -0.39,0.196 0,0.24 -0.141,0.35 -0.313,0.243 -0.172,-0.106 -0.514,0.13 -0.76,0.524 -0.371,0.594 -0.135,0.546 1.387,-0.287 2.311,-1.264 2.275,-1.231 1.292,-1.157 -0.454,0.034 -0.825,0.211 -0.825,0.392 m 41.969004,-0.068 c -0.146,0.235 0.04,0.718 0.413,1.074 0.636,0.606 0.652,0.595 0.255,-0.182 -0.232,-0.455 -0.311,-0.938 -0.175,-1.074 0.135,-0.135 0.14,-0.246 0.009,-0.246 -0.131,0 -0.356,0.192 -0.502,0.428 m -9.186,0.887 c 1.057,1.148 1.266,1.26 0.986,0.532 -0.105,-0.274 -0.582,-0.736 -1.062,-1.028 -0.831,-0.507 -0.827,-0.484 0.076,0.496 m 70.733,-0.492 c 0,0.237 -0.264,0.331 -0.586,0.207 -0.323,-0.124 -0.586,-0.044 -0.586,0.177 0,0.22 -0.164,0.3 -0.364,0.176 -0.2,-0.123 -0.476,-0.043 -0.613,0.179 -0.137,0.222 -0.406,0.306 -0.598,0.187 -0.193,-0.118 -0.708,0.142 -1.145,0.58 -0.438,0.438 -0.853,0.752 -0.923,0.698 -0.254,-0.196 -2.556,2.208 -2.382,2.489 0.098,0.159 -0.175,0.537 -0.607,0.839 -0.432,0.303 -0.669,0.667 -0.527,0.808 0.142,0.142 0.042,0.258 -0.221,0.258 -0.263,0 -0.379,0.162 -0.257,0.36 0.122,0.197 -0.045,0.625 -0.37,0.951 -0.326,0.326 -0.44,0.687 -0.254,0.802 0.187,0.116 0.659,-0.498 1.049,-1.364 1.525,-3.383 6.598,-6.907 10.115,-7.026 0.797,-0.027 0.797,-0.032 0.026,-0.363 -1.107,-0.476 -1.757,-0.461 -1.757,0.042 m 95.625,0.018 c 0.463,0.432 6.013,0.64 5.581,0.209 -0.211,-0.211 -1.615,-0.402 -3.119,-0.424 -1.505,-0.023 -2.612,0.074 -2.462,0.215 m 18.047,10e-4 c 0,0.141 -0.38,0.157 -0.843,0.036 -0.632,-0.165 -0.762,-0.091 -0.522,0.298 0.233,0.377 0.144,0.451 -0.326,0.27 -0.402,-0.154 -0.945,0.072 -1.432,0.594 -0.431,0.462 -0.786,0.676 -0.79,0.475 -0.003,-0.202 -0.172,-0.103 -0.376,0.219 -0.204,0.322 -0.509,0.593 -0.678,0.601 -0.492,0.026 -3.051,2.61 -2.944,2.974 0.054,0.182 -0.088,0.331 -0.316,0.331 -0.227,0 -0.314,0.161 -0.193,0.357 0.122,0.197 0,0.447 -0.269,0.555 -0.345,0.14 -0.354,0.207 -0.03,0.229 0.254,0.017 0.86,-0.54 1.347,-1.239 2.328,-3.342 5.459,-5.028 9.821,-5.29 3.913,-0.235 4.224,-0.703 0.453,-0.682 -1.596,0.008 -2.902,0.131 -2.902,0.272 m -110.25,0.215 c 0.486,0.093 1.189,0.09 1.563,-0.008 0.373,-0.098 -0.024,-0.174 -0.884,-0.17 -0.859,0.005 -1.165,0.085 -0.679,0.178 m 2.663,0.064 c -0.116,0.188 0.578,0.642 1.542,1.01 2.026,0.774 5.131,3.706 5.917,5.589 0.342,0.817 0.711,1.191 0.999,1.013 0.346,-0.214 0.343,-0.321 -0.014,-0.44 -0.26,-0.086 -0.372,-0.318 -0.251,-0.514 0.121,-0.197 0.035,-0.358 -0.193,-0.358 -0.227,0 -0.413,-0.263 -0.413,-0.586 0,-0.322 -0.187,-0.585 -0.414,-0.585 -0.228,0 -0.304,-0.178 -0.171,-0.394 0.134,-0.216 -0.03,-0.498 -0.365,-0.627 -0.335,-0.128 -0.494,-0.418 -0.355,-0.643 0.141,-0.229 0.068,-0.296 -0.166,-0.151 -0.231,0.143 -0.762,-0.176 -1.181,-0.708 -0.418,-0.531 -0.867,-0.86 -0.998,-0.729 -0.131,0.131 -0.352,-0.057 -0.49,-0.418 -0.431,-1.121 -2.987,-2.203 -3.447,-1.459 m 87.933,0.685 c -0.399,0.532 -0.91,0.828 -1.172,0.678 -0.255,-0.146 -0.333,-0.122 -0.174,0.054 0.427,0.471 -0.451,1.356 -1.099,1.107 -0.431,-0.165 -0.556,0.173 -0.549,1.488 l 0.008,1.702 0.712,-1.565 c 0.391,-0.862 1.351,-2.128 2.132,-2.814 0.782,-0.686 1.293,-1.326 1.136,-1.421 -0.157,-0.096 -0.604,0.251 -0.994,0.771 m 25.776,-0.768 c -0.141,0.142 0.745,0.763 1.969,1.38 2.408,1.215 2.873,1.625 4.703,4.151 0.662,0.915 1.305,1.499 1.429,1.298 0.124,-0.2 -0.049,-0.469 -0.383,-0.597 -0.335,-0.129 -0.499,-0.411 -0.366,-0.627 0.134,-0.216 0.047,-0.393 -0.193,-0.393 -0.24,0 -0.312,-0.203 -0.158,-0.451 0.172,-0.28 0.107,-0.345 -0.173,-0.173 -0.248,0.154 -0.45,0.074 -0.45,-0.177 0,-0.63 -1.645,-2.31 -2.27,-2.318 -0.286,-0.004 -0.388,-0.205 -0.232,-0.457 0.172,-0.28 0.107,-0.345 -0.173,-0.173 -0.248,0.154 -0.45,0.082 -0.45,-0.158 0,-0.24 -0.176,-0.328 -0.391,-0.195 -0.215,0.133 -0.391,0.045 -0.391,-0.195 0,-0.241 -0.176,-0.328 -0.39,-0.196 -0.215,0.133 -0.391,0.045 -0.391,-0.195 0,-0.24 -0.176,-0.328 -0.391,-0.195 -0.214,0.132 -0.39,0.055 -0.39,-0.173 0,-0.462 -0.514,-0.55 -0.909,-0.156 m -201.826004,0.413 c 0,0.183 0.528,0.645 1.172,1.025 0.645,0.381 1.172,0.607 1.172,0.502 0,-0.105 -0.527,-0.566 -1.172,-1.025 -0.644,-0.459 -1.172,-0.685 -1.172,-0.502 m -44.436,0.393 c -0.27,0.097 -0.391,0.336 -0.27,0.533 0.122,0.196 0.025,0.357 -0.215,0.357 -0.241,0 -0.329,0.176 -0.196,0.391 0.133,0.214 0.093,0.39 -0.089,0.39 -0.182,0 -0.357,0.352 -0.389,0.781 -0.085,1.128 0.1,0.981 1.043,-0.828 0.888,-1.703 0.902,-1.904 0.116,-1.624 m 179.377004,0.216 c -0.335,0.874 -0.384,20.98699 -0.051,20.98699 0.176,-0.001 0.208,0.351 0.071,0.781 -0.156,0.493 -0.07,0.781 0.234,0.781 0.266,0 0.374,0.109 0.241,0.242 -0.133,0.133 0.015,0.498 0.329,0.812 0.314,0.314 0.471,0.733 0.349,0.93 -0.122,0.198 -0.036,0.36 0.191,0.36 0.228,0 0.37,0.131 0.316,0.293 -0.053,0.161 0.058,0.293 0.249,0.293 0.19,0 0.518,0.439 0.728,0.976 0.242,0.619 0.453,0.788 0.575,0.46 0.106,-0.283 -0.157,-0.899 -0.585,-1.367 -2.159,-2.362 -2.227,-2.786 -2.361,-14.60499 l -0.125,-11.019 3.446,-0.131 3.445,-0.13 -3.431,-0.081 c -2.482,-0.058 -3.483,0.058 -3.621,0.418 m 19.66,-0.211 c 0.918,0.082 2.325,0.081 3.125,-0.003 0.8,-0.084 0.048,-0.152 -1.671,-0.15 -1.719,0.001 -2.373,0.07 -1.454,0.153 m 13.281,0 c 0.919,0.082 2.325,0.081 3.125,-0.003 0.8,-0.084 0.048,-0.152 -1.671,-0.15 -1.718,0.001 -2.373,0.07 -1.454,0.153 m 46.681,0.001 c 1.027,0.08 2.609,0.079 3.516,-0.003 0.906,-0.081 0.066,-0.148 -1.868,-0.146 -1.933,0.001 -2.675,0.068 -1.648,0.149 m 20.312,0 c 1.027,0.08 2.609,0.079 3.516,-0.003 0.907,-0.081 0.066,-0.148 -1.867,-0.146 -1.934,0.001 -2.676,0.068 -1.649,0.149 m -82.364,8.696 c 0,4.834 0.056,6.812 0.125,4.395 0.068,-2.417 0.068,-6.372 0,-8.789 -0.069,-2.417 -0.125,-0.44 -0.125,4.394 m 7.041,5.469 c 0,7.84199 0.052,11.04999 0.116,7.12899 0.063,-3.92099 0.063,-10.33699 0,-14.25799 -0.064,-3.921 -0.116,-0.713 -0.116,7.129 m 6.437,-9.277 c -0.016,2.417 -0.059,8.586 -0.098,13.70899 -0.039,5.123 0.062,9.396 0.223,9.496 0.161,0.099 0.293,-6.07 0.293,-13.70999 0,-7.639 -0.088,-13.89 -0.196,-13.89 -0.107,0 -0.207,1.978 -0.222,4.395 m -153.327,-3.374 c 0.093,0.634 1.412,1.631 1.388,1.049 -0.015,-0.398 -0.981,-1.679 -1.265,-1.679 -0.119,0 -0.174,0.283 -0.123,0.63 m 110.578,2.202 c -1.039,1.558 -2.209,3.307 -2.601,3.888 l -0.713,1.055 2.693,4.023 c 1.481,2.212 4.208,6.35099 6.059,9.19799 1.852,2.847 3.583,5.17 3.848,5.164 0.265,-0.007 0.171,-0.193 -0.21,-0.415 -0.38,-0.221 -0.589,-0.567 -0.465,-0.769 0.125,-0.202 0.03,-0.367 -0.21,-0.367 -0.24,0 -0.339,-0.157 -0.221,-0.349 0.119,-0.193 -0.057,-0.455 -0.392,-0.584 -0.34,-0.13 -0.485,-0.433 -0.328,-0.687 0.174,-0.282 0.11,-0.348 -0.171,-0.175 -0.248,0.153 -0.472,0.093 -0.499,-0.135 -0.027,-0.227 -0.093,-0.589 -0.147,-0.804 -0.054,-0.215 -0.119,-0.577 -0.146,-0.804 -0.027,-0.228 -0.206,-0.317 -0.399,-0.198 -0.292,0.18 -0.742,-0.445 -0.821,-1.141 -0.012,-0.1 -0.453,-0.648 -0.98,-1.217 -0.528,-0.57 -0.876,-1.171 -0.774,-1.336 0.102,-0.165 -0.088,-0.405 -0.422,-0.534 -0.335,-0.12799 -0.499,-0.40999 -0.366,-0.62699 0.134,-0.216 0.047,-0.393 -0.193,-0.393 -0.241,0 -0.34,-0.157 -0.221,-0.35 0.119,-0.192 -0.058,-0.455 -0.392,-0.583 -0.335,-0.128 -0.499,-0.412 -0.364,-0.63 0.135,-0.218 -0.029,-0.501 -0.364,-0.629 -0.334,-0.129 -0.511,-0.391 -0.392,-0.583 0.119,-0.193 0.02,-0.35 -0.22,-0.35 -0.241,0 -0.334,-0.167 -0.208,-0.371 0.126,-0.204 -0.142,-0.57 -0.596,-0.813 -0.454,-0.243 -0.741,-0.526 -0.638,-0.63 0.103,-0.103 -0.233,-0.642 -0.748,-1.197 -1.059,-1.143 -1.219,-2.373 -0.352,-2.706 0.321,-0.124 0.487,-0.382 0.368,-0.574 -0.119,-0.192 -0.02,-0.35 0.22,-0.35 0.241,0 0.328,-0.176 0.196,-0.39 -0.133,-0.215 -0.056,-0.391 0.172,-0.391 0.227,0 0.414,-0.269 0.414,-0.598 0,-0.329 0.262,-0.699 0.583,-0.822 0.321,-0.124 0.487,-0.382 0.368,-0.574 -0.119,-0.192 -0.03,-0.35 0.197,-0.35 0.228,0 0.414,-0.269 0.414,-0.598 0,-0.329 0.235,-0.688 0.521,-0.798 0.396,-0.152 0.799,-1.338 0.454,-1.338 -0.036,0 -0.916,1.274 -1.954,2.832 m 98.066,0.898 c 0.743,2.052 1.351,3.82 1.351,3.929 0,0.11 0.175,0.091 0.39,-0.042 0.215,-0.133 0.391,-0.417 0.391,-0.632 0,-0.215 -0.206,-0.264 -0.457,-0.108 -0.307,0.19 -0.375,0.069 -0.208,-0.368 0.137,-0.357 0.11,-0.65 -0.06,-0.65 -0.17,0 -0.723,-1.318 -1.228,-2.929 -0.506,-1.612 -1.056,-2.93 -1.224,-2.93 -0.168,0 0.303,1.679 1.045,3.73 m -218.571004,-3.283 c 0,0.331 2.798,3.135 2.964,2.969 0.08,-0.081 -0.553,-0.83 -1.409,-1.665 -0.855,-0.836 -1.555,-1.422 -1.555,-1.304 m 179.997004,1.313 c -0.11,0.907 -0.009,1.679 0.239,1.843 0.567,0.375 0.764,-1.202 0.304,-2.444 -0.329,-0.889 -0.368,-0.846 -0.543,0.601 m 55.802,1.647 c -0.794,2.254 -0.939,3.084 -0.594,3.401 0.338,0.31 0.394,0.241 0.216,-0.265 -0.132,-0.377 -0.052,-0.684 0.18,-0.684 0.231,0 0.319,-0.263 0.195,-0.586 -0.124,-0.322 -0.036,-0.586 0.195,-0.586 0.231,0 0.319,-0.263 0.196,-0.586 -0.124,-0.322 -0.06,-0.585 0.141,-0.585 0.201,0 0.254,-0.293 0.117,-0.651 -0.183,-0.475 -0.109,-0.562 0.274,-0.326 0.374,0.231 0.457,0.152 0.292,-0.279 -0.127,-0.331 -0.054,-0.78 0.163,-0.997 0.233,-0.233 0.247,-0.484 0.035,-0.615 -0.197,-0.122 -0.832,1.12 -1.41,2.759 m -266.191004,-0.896 c -0.646,0.736 -1.28,1.263 -1.407,1.172 -0.128,-0.092 -0.146,-0.052 -0.041,0.09 0.106,0.141 -0.003,0.492 -0.243,0.781 -0.239,0.288 -0.353,0.524 -0.253,0.524 0.1,0 0.923,-0.879 1.829,-1.953 1.847,-2.19 1.941,-2.694 0.115,-0.614 m 49.949004,-1.267 c -0.068,0.694 0.79,2.271 1.234,2.266 0.316,-0.004 0.351,-0.111 0.096,-0.293 -0.22,-0.158 -0.604,-0.727 -0.852,-1.264 -0.248,-0.537 -0.463,-0.856 -0.478,-0.709 m 190.42,0.292 c -0.142,0.23 -0.077,0.417 0.144,0.417 0.22,0 0.3,0.264 0.176,0.586 -0.123,0.322 -0.02,0.586 0.231,0.586 0.25,0 0.356,0.161 0.235,0.357 -0.122,0.197 -0.037,0.419 0.189,0.494 0.226,0.075 0.44,0.53 0.476,1.01 0.037,0.48 0.219,0.873 0.406,0.873 0.187,0 0.268,0.218 0.179,0.485 -0.089,0.267 0.082,0.729 0.38,1.027 0.298,0.298 0.434,0.827 0.301,1.175 -0.169,0.445 -0.117,0.511 0.174,0.223 0.292,-0.289 -0.002,-1.446 -0.992,-3.906 -1.593,-3.962 -1.552,-3.889 -1.899,-3.327 m -198.286,1.538 c 0.215,0.401 0.28,0.84 0.144,0.976 -0.136,0.136 -0.031,0.247 0.232,0.247 0.263,0 0.399,0.132 0.301,0.293 -0.097,0.161 0.068,0.519 0.368,0.796 0.3,0.277 0.545,0.402 0.545,0.278 0,-0.393 -1.569,-3.32 -1.779,-3.32 -0.111,0 -0.026,0.328 0.189,0.73 m -28.872004,0.438 c -0.362,0.223 -0.262,0.384 0.362,0.582 1.045,0.332 1.284,0.163 0.626,-0.442 -0.269,-0.248 -0.713,-0.311 -0.988,-0.14 m 156.375004,2.347 c 0,1.612 0.069,2.271 0.153,1.465 0.084,-0.806 0.084,-2.124 0,-2.93 -0.084,-0.805 -0.153,-0.146 -0.153,1.465 m -87.662,-1.66 c -0.016,0.161 -0.088,0.601 -0.16,0.977 -0.072,0.376 0.029,0.683 0.225,0.683 0.196,0 0.356,-0.439 0.356,-0.976 0,-0.868 -0.345,-1.429 -0.421,-0.684 m 27.684,0.348 c -1.374,0.725 -2.681,2.583 -2.775,3.945 -0.041,0.593 -0.245,1.2 -0.453,1.35 -0.209,0.149 -0.243,0.408 -0.077,0.575 0.441,0.44 1.061,-0.728 0.811,-1.53 -0.117,-0.376 -0.014,-0.684 0.228,-0.684 0.242,0 0.334,-0.171 0.205,-0.38 -0.13,-0.209 0.15,-0.693 0.621,-1.074 0.471,-0.382 1.14,-0.96 1.486,-1.285 0.346,-0.325 0.979,-0.535 1.406,-0.467 0.562,0.089 0.635,0.025 0.265,-0.229 -0.336,-0.231 0.102,-0.339 1.269,-0.314 0.98,0.021 1.782,0.18 1.782,0.354 0,0.174 0.179,0.206 0.397,0.071 1.604,-0.992 -3.315,-1.308 -5.165,-0.332 m 113.05,0.519 c -1.836,1.33 -2.283,2.024 -2.529,3.925 -0.096,0.748 -0.099,1.053 -0.007,0.677 0.092,-0.376 0.326,-0.684 0.519,-0.684 0.193,0 0.25,-0.263 0.126,-0.586 -0.123,-0.322 -0.019,-0.586 0.231,-0.586 0.251,0 0.347,-0.175 0.214,-0.39 -0.133,-0.215 -0.076,-0.391 0.127,-0.391 0.202,0 0.464,-0.369 0.582,-0.82 0.118,-0.452 0.384,-0.716 0.591,-0.588 0.207,0.127 0.788,-0.101 1.29,-0.508 0.632,-0.512 1.291,-0.678 2.139,-0.54 0.692,0.112 1.343,0.009 1.494,-0.235 0.639,-1.034 -3.141,-0.459 -4.777,0.726 m -188.397004,-0.057 c 0.238,0.444 0.624,0.926 0.859,1.071 0.307,0.189 0.305,0.035 -0.004,-0.542 -0.237,-0.444 -0.624,-0.926 -0.859,-1.071 -0.306,-0.19 -0.305,-0.036 0.004,0.542 m 193.551004,-0.255 c -0.183,0.296 -0.079,0.378 0.298,0.234 0.331,-0.127 0.779,0.096 1.043,0.519 0.255,0.407 0.681,0.698 0.949,0.644 0.267,-0.053 0.441,0.123 0.387,0.392 -0.053,0.268 0.062,0.488 0.257,0.488 0.195,0 0.255,0.379 0.134,0.842 -0.161,0.614 -0.086,0.76 0.273,0.537 0.636,-0.392 0.127,1.407 -0.521,1.845 -0.242,0.163 -0.049,0.24 0.433,0.173 0.954,-0.133 1.698,-0.662 0.931,-0.662 -0.263,0 -0.368,-0.18 -0.232,-0.399 0.438,-0.709 -0.612,-3.065 -1.819,-4.081 -1.309,-1.101 -1.718,-1.204 -2.133,-0.532 m -112.474,0.381 c -0.168,0.291 -0.175,0.412 -0.015,0.269 0.347,-0.312 1.732,0.914 1.507,1.334 -0.086,0.161 0.04,0.293 0.281,0.293 0.24,0 0.328,0.176 0.195,0.391 -0.133,0.215 -0.052,0.39 0.18,0.39 0.254,0 0.323,0.388 0.174,0.981 -0.197,0.789 -0.124,0.935 0.373,0.744 0.559,-0.215 0.562,-0.376 0.027,-1.665 -0.804,-1.94 -2.308,-3.452 -2.722,-2.737 m -126.599004,0.521 c -0.323,0.841 -0.061,1.027 0.536,0.38 0.307,-0.334 0.342,-0.614 0.094,-0.767 -0.214,-0.132 -0.497,0.042 -0.63,0.387 m 217.346004,-0.138 c 0.829,0.239 1.517,0.231 1.954,-0.024 0.512,-0.299 0.207,-0.387 -1.28,-0.369 -1.882,0.023 -1.907,0.037 -0.674,0.393 m -181.943004,0.019 c 2.296,2.228 3.959,3.496 3.24,2.471 -0.452,-0.645 -1.41,-1.507 -2.129,-1.917 -0.719,-0.409 -1.219,-0.659 -1.111,-0.554 m 178.544004,0.961 c -0.923,1.173 -0.994,1.545 -0.369,1.932 0.261,0.16 0.373,0.065 0.273,-0.233 -0.221,-0.664 1.557,-2.429 2.106,-2.09 0.255,0.158 0.314,0.082 0.147,-0.187 -0.458,-0.741 -1.297,-0.516 -2.157,0.578 m 11.504,-0.278 c -0.141,0.446 -0.431,0.811 -0.645,0.811 -0.213,0 -0.263,0.201 -0.111,0.447 0.176,0.284 0.479,0.058 0.835,-0.621 0.307,-0.587 0.473,-1.152 0.369,-1.257 -0.105,-0.105 -0.306,0.175 -0.448,0.62 m 23.487,-0.456 c -0.1,0.162 0.041,1.17 0.312,2.241 0.442,1.74 0.526,1.845 0.797,0.991 0.189,-0.593 0.144,-1.007 -0.117,-1.094 -0.232,-0.077 -0.324,-0.392 -0.206,-0.701 0.119,-0.308 0.026,-0.56 -0.205,-0.56 -0.231,0 -0.319,-0.264 -0.195,-0.586 0.231,-0.602 -0.059,-0.82 -0.386,-0.291 m -231.326004,1.178 c -0.439,0.371 -1.046,1.027 -1.35,1.456 -0.303,0.43 0.1,0.176 0.896,-0.565 1.308,-1.216 1.638,-1.6 1.35,-1.574 -0.053,0.004 -0.457,0.312 -0.896,0.683 m -9.714,0.033 c -0.499,0.807 -0.976,2.425 -0.658,2.228 0.194,-0.12 0.535,-0.745 0.76,-1.39 0.391,-1.12 0.338,-1.55 -0.102,-0.838 m 38.858,-0.139 c 0,0.215 0.258,0.732 0.573,1.149 0.316,0.417 0.574,0.582 0.574,0.367 0,-0.215 -0.258,-0.732 -0.574,-1.149 -0.315,-0.417 -0.573,-0.582 -0.573,-0.367 m 222.099004,0.39 c 0.124,0.323 0.012,0.586 -0.249,0.586 -0.268,0 -0.373,0.264 -0.242,0.607 0.146,0.38 0.073,0.507 -0.195,0.341 -0.286,-0.176 -0.34,0.012 -0.165,0.566 0.145,0.457 0.096,0.83 -0.11,0.83 -0.205,0 -0.365,0.22 -0.355,0.488 0.05,1.34 -0.137,1.882 -0.557,1.623 -0.31,-0.192 -0.383,-0.015 -0.232,0.562 0.121,0.464 0.066,0.843 -0.122,0.843 -0.188,0 -0.229,0.292 -0.092,0.65 0.181,0.472 0.108,0.562 -0.269,0.329 -0.389,-0.24 -0.464,-0.11 -0.298,0.522 0.121,0.463 0.066,0.843 -0.122,0.843 -0.188,0 -0.24,0.263 -0.117,0.58499 0.124,0.323 0.03,0.586 -0.207,0.586 -0.238,0 -0.433,-0.293 -0.433,-0.65099 0,-0.358 -0.104,-0.546 -0.232,-0.418 -0.128,0.128 -0.107,0.80599 0.047,1.50699 l 0.28,1.275 0.49,-0.954 c 1.53,-2.97999 3.985,-11.30499 3.334,-11.30499 -0.208,0 -0.277,0.263 -0.154,0.585 m 6.669,1.473 c -0.953,2.604 -1.137,3.41 -0.778,3.41 0.184,0 0.364,-0.393 0.4,-0.873 0.036,-0.48 0.24,-0.931 0.452,-1.002 0.212,-0.07 0.289,-0.381 0.171,-0.689 -0.119,-0.308 -0.01,-0.561 0.24,-0.561 0.251,0 0.335,-0.195 0.187,-0.434 -0.148,-0.239 -0.051,-0.569 0.214,-0.732 0.294,-0.182 0.333,-0.391 0.1,-0.535 -0.21,-0.13 -0.654,0.507 -0.986,1.416 m -139.446,-1.041 c -0.156,0.156 -0.279,0.651 -0.273,1.098 0.011,0.752 0.043,0.761 0.419,0.116 0.436,-0.751 0.325,-1.685 -0.146,-1.214 m 88.148,0.709 c 0.146,0.413 0.082,0.864 -0.143,1.003 -0.248,0.153 -0.298,0.777 -0.128,1.593 l 0.281,1.342 0.291,-1.953 c 0.191,-1.278 0.144,-2.087 -0.138,-2.343 -0.305,-0.278 -0.352,-0.174 -0.163,0.358 m 37.965,-0.214 c -0.184,0.298 1.863,6.956 2.261,7.354 0.083,0.084 0.259,-0.129 0.39,-0.472 0.151,-0.394 0.082,-0.525 -0.189,-0.358 -0.282,0.174 -0.343,-0.004 -0.177,-0.525 0.145,-0.456 0.026,-1.013 -0.283,-1.321 -0.293,-0.294 -0.46,-0.752 -0.371,-1.018 0.089,-0.267 -0.048,-0.485 -0.303,-0.485 -0.256,0 -0.364,-0.264 -0.241,-0.586 0.124,-0.322 0.06,-0.586 -0.141,-0.586 -0.201,0 -0.265,-0.264 -0.141,-0.586 0.124,-0.322 0.036,-0.586 -0.195,-0.586 -0.232,0 -0.319,-0.263 -0.196,-0.586 0.241,-0.628 -0.065,-0.809 -0.414,-0.245 m -151.733,1.32 c -0.015,0.483 -0.077,2.408 -0.139,4.277 -0.061,1.869 0,3.27499 0.137,3.12499 0.36,-0.39599 0.664,-8.28099 0.319,-8.28099 -0.159,0 -0.302,0.395 -0.317,0.879 m 25.928,0.195 c -0.498,1.253 -0.432,5.154 0.091,5.355 0.365,0.14 0.488,-0.596 0.488,-2.926 0,-3.189 -0.103,-3.624 -0.579,-2.429 m 118.641,0.377 c 0.015,0.748 0.186,1.157 0.423,1.01 0.24,-0.148 0.299,0.012 0.149,0.404 -0.138,0.358 -0.085,0.65 0.116,0.65 0.202,0 0.258,0.308 0.126,0.684 -0.181,0.514 -0.125,0.577 0.225,0.256 0.358,-0.329 0.288,-0.871 -0.3,-2.344 -0.714,-1.789 -0.763,-1.833 -0.739,-0.66 m -235.158004,0.513 c -0.701,0.638 -1.053,1.151 -0.781,1.139 0.272,-0.012 0.903,-0.539 1.403,-1.172 1.141,-1.445 0.994,-1.437 -0.622,0.033 m 28.575,-0.621 c -0.119,0.309 -0.052,0.856 0.149004,1.215 0.332,0.593 0.387,0.595 0.606,0.023 0.133,-0.345 0.077,-0.628 -0.124,-0.628 -0.202,0 -0.265,-0.264 -0.142,-0.586 0.124,-0.322 0.113,-0.586 -0.024,-0.586 -0.137,0 -0.347,0.253 -0.465004,0.562 m 201.607004,-0.059 c -0.545,0.661 -0.505,4.577 0.047,4.576 0.273,-0.001 0.459,-0.958 0.493,-2.54 0.06,-2.723 0.052,-2.753 -0.54,-2.036 m -37.689,8.57899 c -0.004,5.136 0.145,8.887 0.352,8.887 0.483,0 0.509,-16.43199 0.027,-17.18799 -0.244,-0.383 -0.375,2.495 -0.379,8.30099 m -172.142004,-7.45699 c 0,0.307 0.235,0.777 0.521,1.044 0.287,0.268 0.521,0.338 0.521,0.155 0,-0.182 -0.234,-0.652 -0.521,-1.043 -0.378,-0.518 -0.521,-0.56 -0.521,-0.156 m -42.046,1.132 c -0.133,0.511 -0.043,0.748 0.248,0.651 0.562,-0.187 0.855,-1.455 0.336,-1.455 -0.205,0 -0.468,0.362 -0.584,0.804 m 66.428004,-0.579 c -0.161,0.163 -0.288,0.75 -0.281,1.305 0.01,0.885 0.061,0.924 0.417,0.313 0.445,-0.764 0.333,-2.091 -0.136,-1.618 m -50.924004,1.118 c -0.119,0.31 -0.049,0.86 0.154,1.224 0.291,0.52 0.361,0.4 0.326,-0.562 -0.049,-1.352 -0.158,-1.502 -0.48,-0.662 m 209.852004,0.447 c -0.364,0.949 -0.281,2.971 0.113,2.728 0.412,-0.255 0.768,-3.346 0.386,-3.346 -0.144,0 -0.368,0.278 -0.499,0.618 m 50.391,0 c -0.32,0.833 -0.298,1.335 0.056,1.335 0.161,0 0.318,-0.44 0.349,-0.977 0.065,-1.124 -0.067,-1.24 -0.405,-0.358 m -256.353004,0.855 c -0.034,0.573 -0.228,1.097 -0.432,1.165 -0.203,0.068 -0.28,0.591 -0.171,1.162 0.173,0.90699 0.261,0.79399 0.694,-0.892 0.273,-1.063 0.378,-2.054 0.233,-2.205 -0.144,-0.15 -0.29,0.196 -0.324,0.77 m -19.599,3.21399 c -0.007,2.623 0.11,3.82 0.324,3.321 0.419,-0.975 0.419,-5.13699 0,-6.44599 -0.2,-0.624 -0.317,0.504 -0.324,3.12499 m 51.757004,-3.64499 c -0.144,0.143 -0.25,0.626 -0.236,1.074 0.023,0.748 0.055,0.738 0.399,-0.122 0.383,-0.956 0.303,-1.419 -0.163,-0.952 m 206.579,0.123 c -0.135,0.219 -0.065,0.397 0.156,0.397 0.221,0 0.3,0.264 0.177,0.586 -0.124,0.323 -0.02,0.586 0.23,0.586 0.251,0 0.347,0.176 0.214,0.391 -0.132,0.215 -0.044,0.391 0.196,0.391 0.24,0 0.328,0.175 0.195,0.39 -0.133,0.21499 -0.036,0.39099 0.214,0.39099 0.283,0 0.347,-0.25899 0.168,-0.68399 -0.158,-0.376 -0.373,-1.082 -0.479,-1.568 -0.224,-1.035 -0.722,-1.444 -1.071,-0.88 m -266.218006,3.79799 c -0.106,1.977 -0.053,3.455 0.118,3.284 0.17,-0.172 0.257,-1.79 0.192,-3.596 l -0.117,-3.28399 -0.193,3.59599 m 23.062002,-3.00999 c 0,0.322 0.17,0.85 0.379,1.172 0.336,0.521 0.378,0.521 0.378,0 0,-0.322 -0.17,-0.85 -0.378,-1.172 -0.337,-0.521 -0.379,-0.521 -0.379,0 m 140.144004,0.492 c -1.56,2.46099 -2.308,3.80499 -2.118,3.80499 0.116,0 0.665,-0.775 1.22,-1.722 1.412,-2.40899 2.89,-2.25099 3.312,0.355 0.035,0.215 0.319,0.533 0.63,0.707 0.312,0.175 0.465,0.482 0.34,0.684 -0.125,0.202 -0.03,0.367 0.21,0.367 0.24,0 0.328,0.175 0.195,0.39 -0.132,0.215 -0.044,0.391 0.196,0.391 0.24,0 0.333,0.167 0.207,0.371 -0.126,0.204 0.142,0.57 0.597,0.813 0.454,0.243 0.741,0.526 0.637,0.629 -0.103,0.104 0.23,0.639 0.741,1.19 0.51,0.551 0.833,1.155 0.717,1.343 -0.116,0.188 -0.014,0.341 0.226,0.341 0.24,0 0.311,0.203 0.158,0.451 -0.173,0.28 -0.107,0.345 0.172,0.172 0.426,-0.262 0.641,0.263 0.465,1.135 -0.044,0.215 0.05,0.262 0.208,0.104 0.158,-0.158 0.537,0.018 0.843,0.39 1.187,1.448 -2.308,-4.181 -6.439,-10.36799 -1.705,-2.553 -1.831,-2.631 -2.517,-1.548 m 119.998,-0.004 c -0.002,0.054 -0.446,1.403 -0.987,2.99799 -0.605,1.781 -0.845,3.039 -0.622,3.262 0.43,0.43 1.004,-1.072 0.637,-1.666 -0.134,-0.217 -0.063,-0.394 0.158,-0.394 0.221,0 0.3,-0.264 0.176,-0.586 -0.123,-0.323 -0.035,-0.586 0.196,-0.586 0.231,0 0.308,-0.292 0.17,-0.65 -0.148,-0.388 -0.091,-0.553 0.143,-0.408 0.228,0.141 0.392,-0.24 0.392,-0.91299 0,-0.837 -0.242,-1.809 -0.263,-1.057 m -216.276,2.83199 c 0.002,1.504 0.073,2.072 0.157,1.261 0.085,-0.81 0.083,-2.041 -0.003,-2.73399 -0.086,-0.694 -0.155,-0.031 -0.154,1.47299 m 60.419,-2.17499 c 0,0.499 17.212,0.532 17.969,0.034 0.394,-0.26 -2.45,-0.388 -8.692,-0.392 -5.467,-0.003 -9.277,0.144 -9.277,0.358 m 113.672,0.587 c 0,6.07199 9.942,8.90399 13.243,3.77399 0.821,-1.277 -0.768,-0.497 -1.7,0.834 -0.333,0.476 -0.608,0.694 -0.612,0.485 -0.003,-0.209 -0.153,-0.147 -0.333,0.137 -0.383,0.604 -5.129,1.036 -5.129,0.466 0,-0.205 -0.264,-0.271 -0.586,-0.147 -0.323,0.123 -0.586,0.019 -0.586,-0.231 0,-0.251 -0.158,-0.358 -0.35,-0.239 -0.192,0.119 -0.451,-0.049 -0.575,-0.372 -0.124,-0.323 -0.442,-0.541 -0.707,-0.486 -0.265,0.056 -0.489,-0.124 -0.499,-0.401 -0.01,-0.276 -0.281,-0.669 -0.604,-0.873 -0.322,-0.203 -0.41,-0.376 -0.195,-0.382 0.215,-0.007 0.174,-0.15 -0.092,-0.318 -0.265,-0.169 -0.586,-0.826 -0.713,-1.459 l -0.231,-1.15299 8.677,0.122 c 5.762,0.081 8.817,-0.017 9.093,-0.293 0.292,-0.293 -2.31,-0.415 -8.843,-0.415 h -9.258 v 0.951 m -181.097,-0.101 c -0.413,0.66799 -0.347,3.18699 0.087,3.33199 0.204,0.068 0.409,-0.757 0.456,-1.834 0.087,-1.98799 -0.034,-2.32199 -0.543,-1.49799 m 14.467,1.83799 c 0.015,1.058 0.147,1.851 0.292,1.762 0.145,-0.089 0.358,0.147 0.474,0.526 0.116,0.379 0.119,-0.278 0.006,-1.46 -0.264,-2.75799 -0.81,-3.34399 -0.772,-0.828 m 159.503,-1.43799 c -0.14,0.36499 0.01,1.19499 0.334,1.84499 0.325,0.65 0.617,1.538 0.65,1.973 0.032,0.435 0.227,0.792 0.432,0.792 0.205,0 0.273,0.099 0.151,0.221 -0.121,0.121 0.452,0.949 1.274,1.84 0.823,0.891 1.393,1.785 1.268,1.988 -0.125,0.202 -0.033,0.248 0.206,0.1 0.24,-0.149 0.722,0.171 1.08,0.718 0.355,0.542 0.802,0.889 0.993,0.77 0.192,-0.118 0.348,-0.066 0.348,0.116 0,0.182 0.356,0.357 0.79,0.39 0.434,0.033 0.688,-0.106 0.563,-0.308 -0.125,-0.201 -0.472,-0.367 -0.772,-0.367 -1.814,0 -6.03,-5.781 -6.754,-9.262 -0.22,-1.05999 -0.38,-1.29099 -0.563,-0.81599 m -211.162004,2.07099 c -0.008,2.068 0.039,2.212 0.396,1.23 0.276,-0.758 0.279,-1.505 0.009,-2.343 -0.361,-1.12399 -0.397,-1.02599 -0.405,1.113 m 29.317,-0.586 c 0,0.752 0.08,1.059 0.179,0.683 0.098,-0.376 0.098,-0.991 0,-1.367 -0.099,-0.376 -0.179,-0.068 -0.179,0.684 m 68.513004,-0.184 c -0.133,0.348 0.03,0.904 0.362,1.236 0.545,0.545 0.578,0.495 0.335,-0.517 -0.343,-1.426 -0.402,-1.487 -0.697,-0.719 m 147.217,-0.207 c -0.133,0.215 -0.061,0.391 0.16,0.391 0.22,0 0.3,0.263 0.176,0.586 -0.123,0.322 -0.02,0.586 0.231,0.586 0.25,0 0.347,0.175 0.214,0.39 -0.133,0.215 -0.037,0.391 0.214,0.391 0.25,0 0.354,0.263 0.231,0.586 -0.124,0.322 -0.06,0.586 0.141,0.586 0.201,0 0.254,0.292 0.117,0.65 -0.168,0.437 -0.1,0.557 0.207,0.367 0.432,-0.266 0.62,0.296 0.555,1.661 -0.017,0.368 0.099,0.406 0.383,0.122 0.283,-0.283 0.021,-1.369 -0.862,-3.557 -1.333,-3.307 -1.381,-3.383 -1.767,-2.759 m -252.930004,1.344 c 0,0.739 0.135,1.428 0.3,1.53 0.165,0.102 0.235,-0.503 0.154,-1.344 -0.18,-1.889 -0.454,-2.001 -0.454,-0.186 m 113.482004,-0.572 c -0.776,1.256 3.589,4.608 4.606,3.537 0.37,-0.389 0.285,-0.436 -0.412,-0.225 -0.58,0.175 -0.879,0.102 -0.879,-0.217 0,-0.265 -0.099,-0.383 -0.219,-0.263 -0.287,0.288 -2.274,-1.694 -2.377,-2.37 -0.117,-0.766 -0.413,-0.957 -0.719,-0.462 m -80.765004,0.986 c -0.103,0.537 -0.035,0.976 0.15,0.976 0.185,0 0.336,-0.439 0.336,-0.976 0,-0.537 -0.067,-0.977 -0.15,-0.977 -0.082,0 -0.233,0.44 -0.336,0.977 m 55.436004,-0.293 c -0.096,0.161 -0.172,0.776 -0.17,1.367 l 0.005,1.074 7.666,-0.085 7.666,-0.084 -7.442,-0.209 -7.443,-0.208 0.058,-1.074 c 0.059,-1.096 -0.03,-1.302 -0.34,-0.781 m 37.402,0.613 c -0.214,0.468 -0.606,0.806 -0.873,0.75 -0.267,-0.055 -0.586,0.163 -0.71,0.486 -0.124,0.323 -0.383,0.491 -0.575,0.372 -0.193,-0.119 -0.35,-0.02 -0.35,0.22 0,0.24 -0.176,0.328 -0.391,0.196 -0.215,-0.133 -0.39,-0.044 -0.39,0.198 0,0.746 1.666,0.008 3.069,-1.361 0.721,-0.703 1.153,-1.376 0.96,-1.496 -0.193,-0.119 -0.526,0.166 -0.74,0.635 m 59.84,-0.354 c 0.214,0.562 0.156,0.669 -0.233,0.428 -0.293,-0.181 -0.424,-0.166 -0.302,0.034 0.118,0.194 -0.031,0.58 -0.331,0.857 -0.299,0.277 -0.545,0.387 -0.545,0.245 0,-0.142 -0.259,-0.043 -0.576,0.219 -0.678,0.563 -4.545,0.785 -4.209,0.242 0.124,-0.202 -0.05,-0.26 -0.387,-0.131 -0.657,0.252 -2.04,-0.963 -1.599,-1.404 0.143,-0.143 0.037,-0.261 -0.237,-0.261 -0.293,0 -0.4,0.254 -0.26,0.618 0.13,0.34 0.237,0.687 0.237,0.771 0,0.508 2.588,1.346 4.156,1.346 2.722,0 5.593,-2.133 4.428,-3.288 -0.308,-0.306 -0.348,-0.215 -0.142,0.324 m -173.404004,0.383 c -0.16,0.406 -0.199,0.831 -0.086,0.944 0.356,0.356 0.67,-0.228 0.52,-0.97 -0.136,-0.679 -0.157,-0.678 -0.434,0.026 m 114.962004,-0.403 c 0,0.162 0.835,1.064 1.856,2.004 l 1.855,1.71 -2.259,2.195 c -1.243,1.207 -1.912,2.008 -1.487,1.781 0.425,-0.228 0.883,-0.592 1.017,-0.809 0.134,-0.217 0.435,-0.277 0.668,-0.133 0.246,0.153 0.312,0.082 0.157,-0.169 -0.147,-0.239 0.255,-0.816 0.901,-1.294 0.642,-0.475 1.076,-1.011 0.965,-1.192 -0.112,-0.18 0.027,-0.331 0.308,-0.334 0.37,-0.005 0.35,-0.108 -0.075,-0.377 -0.322,-0.203 -0.586,-0.552 -0.586,-0.775 0,-0.223 -0.175,-0.413 -0.39,-0.423 -0.215,-0.01 -0.962,-0.572 -1.66,-1.248 -0.699,-0.677 -1.27,-1.098 -1.27,-0.936 m 18.459,0.347 c -0.946,1.195 -1.278,2.196 -0.821,2.478 0.264,0.163 0.346,0.109 0.198,-0.131 -0.139,-0.225 0.035,-0.52 0.386,-0.655 0.352,-0.135 0.533,-0.353 0.402,-0.483 -0.13,-0.131 -0.061,-0.566 0.154,-0.968 0.444,-0.83 0.259,-0.971 -0.319,-0.241 m 96.554,1.376 1.927,2.018 -0.755,0.888 c -0.999,1.174 -1.976,2.068 -3.008,2.754 l -0.845,0.56 0.897,-0.066 c 0.536,-0.039 1.413,-0.717 2.18,-1.686 0.705,-0.892 1.357,-1.546 1.448,-1.454 0.092,0.091 0.204,-0.323 0.25,-0.92 0.077,-1.013 -1.479,-3.084 -2.197,-2.923 -0.144,0.032 -0.203,-0.144 -0.131,-0.391 0.071,-0.247 0,-0.319 -0.16,-0.16 -0.159,0.16 -0.569,0.081 -0.911,-0.174 -0.342,-0.256 0.245,0.444 1.305,1.554 m -135.14,-0.497 c 0.145,0.429 0.294,0.956 0.332,1.17 0.038,0.214 0.332,0.604 0.655,0.867 0.322,0.262 0.443,0.482 0.269,0.489 -0.174,0.007 0.474,0.697 1.441,1.534 0.966,0.837 1.636,1.656 1.488,1.82 -0.148,0.165 -0.049,0.173 0.219,0.019 0.269,-0.155 0.489,-0.124 0.489,0.067 0,0.192 0.296,0.349 0.658,0.349 0.515,0 0.464,-0.134 -0.24,-0.619 -1.716,-1.182 -3.42,-2.972 -4.494,-4.72 -0.594,-0.967 -0.962,-1.406 -0.817,-0.976 m -62.39,1.172 c -0.117,0.611 -0.008,0.976 0.291,0.976 0.298,0 0.407,-0.365 0.29,-0.976 -0.102,-0.538 -0.233,-0.977 -0.29,-0.977 -0.058,0 -0.189,0.439 -0.291,0.977 m 220.868,2.056 c -1.216,3.391 -1.345,3.998 -0.854,3.998 0.242,0 0.331,-0.176 0.198,-0.39 -0.132,-0.215 -0.036,-0.391 0.214,-0.391 0.251,0 0.355,-0.264 0.231,-0.586 -0.124,-0.322 -0.04,-0.586 0.186,-0.586 0.226,0 0.338,-0.218 0.25,-0.485 -0.089,-0.266 0.082,-0.728 0.38,-1.027 0.298,-0.298 0.438,-0.813 0.311,-1.144 -0.127,-0.331 -0.03,-0.726 0.215,-0.877 0.281,-0.174 0.303,-0.363 0.059,-0.514 -0.213,-0.132 -0.748,0.769 -1.19,2.002 m -233.477004,-1.052 c -0.151,0.477 -0.996,1.676 -1.877,2.666 l -1.602,1.798 1.484,-1.367 c 1.479,-1.362 2.818,-3.418 2.459,-3.777 -0.104,-0.103 -0.312,0.202 -0.464,0.68 m 27.283004,0.926 c -0.221,0.966 -0.252,1.663 -0.069,1.55 0.184,-0.113 0.334,-0.558 0.334,-0.987 0,-0.43 0.176,-0.673 0.391,-0.54 0.467,0.288 0.509,-0.576 0.062,-1.28 -0.207,-0.326 -0.456,0.111 -0.718,1.257 m 59.622,-1.325 c -0.391,0.247 0.032,0.361 1.353,0.365 2.106,0.007 2.234,-0.151 0.404,-0.498 -0.654,-0.124 -1.445,-0.064 -1.757,0.133 m -125.374004,0.859 c -0.001,0.484 -0.35,1.451 -0.776,2.149 -0.425,0.698 -0.691,1.269 -0.589,1.269 0.102,0 0.626,-0.699 1.166,-1.554 1.021,-1.617 1.263,-2.742 0.591,-2.742 -0.215,0 -0.391,0.395 -0.392,0.878 m 149.748004,0.196 c -0.435,0.591 -1.019,1.513 -1.298,2.051 l -0.506,0.976 0.964,-0.976 c 0.531,-0.538 0.956,-1.065 0.946,-1.172 -0.01,-0.108 0.201,-0.591 0.469,-1.075 0.666,-1.201 0.382,-1.104 -0.575,0.196 m 43.261,0.097 c -0.028,0.323 -0.576,1.181 -1.217,1.909 -1.484,1.684 -1.517,2.3 -0.049,0.908 0.614,-0.582 1.053,-1.176 0.974,-1.318 -0.078,-0.143 0.055,-0.326 0.295,-0.406 0.241,-0.08 0.35,-0.491 0.243,-0.912 -0.118,-0.467 -0.214,-0.538 -0.246,-0.181 m 69.395,1.009 c -0.467,0.467 -0.339,1.019 0.164,0.708 0.307,-0.19 0.375,-0.069 0.207,0.368 -0.137,0.357 -0.101,0.65 0.08,0.65 0.182,0 0.33,0.436 0.33,0.969 0,0.535 -0.172,0.863 -0.384,0.733 -0.233,-0.145 -0.28,0.088 -0.12,0.593 0.167,0.524 0.095,0.83 -0.195,0.83 -0.252,0 -0.358,0.263 -0.234,0.586 0.124,0.322 0.044,0.586 -0.177,0.586 -0.22,0 -0.292,0.175 -0.16,0.39 0.133,0.215 0.056,0.391 -0.172,0.391 -0.227,0 -0.37,0.212 -0.316,0.47 0.091,0.437 -0.084,0.521 -1.347,0.653 -0.363,0.038 -0.362,0.156 0.004,0.522 1.419,1.419 4.271,-4.985 3.25,-7.298 -0.35,-0.794 -0.769,-1.312 -0.93,-1.151 m -212.215004,0.968 c -0.142,0.449 -0.155,0.921 -0.028,1.048 0.127004,0.127 0.231004,-0.073 0.231004,-0.444 0,-0.37 0.176,-0.565 0.391,-0.432 0.214,0.133 0.39,0.065 0.39,-0.149 0,-0.795 -0.733,-0.812 -0.984004,-0.023 m 143.066004,0.337 c -0.113,0.435 0.049,0.993 0.366,1.256 0.485,0.403 0.529,0.303 0.295,-0.669 -0.354,-1.474 -0.415,-1.527 -0.661,-0.587 m -13.827,1.035 c 0,0.288 0.147,0.433 0.326,0.322 0.179,-0.111 0.326,-0.005 0.326,0.236 0,0.24 0.161,0.336 0.359,0.214 0.197,-0.122 0.616,0.035 0.93,0.349 0.314,0.314 0.689,0.453 0.834,0.308 0.144,-0.144 0.385,-0.085 0.534,0.133 0.154,0.224 0.78,0.281 1.444,0.132 l 1.172,-0.263 -1.211,-0.046 c -0.667,-0.025 -2,-0.465 -2.963,-0.977 -1.26,-0.67 -1.751,-0.784 -1.751,-0.408 m -32.149,0.348 c -0.331,0.399 -1.498,0.613 -3.857,0.708 l -3.382,0.136 3.826,0.025 c 2.104,0.014 3.731,-0.069 3.616,-0.184 -0.114,-0.114 -0.012,-0.444 0.227,-0.732 0.239,-0.289 0.347,-0.525 0.24,-0.525 -0.108,0 -0.409,0.258 -0.67,0.572 m -113.864004,0.345 c -0.562,0.411 -0.608,0.596 -0.209,0.842 0.337,0.208 0.415,0.162 0.231,-0.136 -0.163,-0.264 -0.036,-0.451 0.307,-0.451 0.323,0 0.695,-0.176 0.828,-0.39 0.345,-0.559 -0.312,-0.482 -1.157,0.135 m 131.711004,0.277 c 0.543,0.5 2.063,0.823 2.063,0.44 0,-0.205 -0.533,-0.451 -1.184,-0.547 -0.652,-0.095 -1.047,-0.047 -0.879,0.107 m 5.188,-0.064 c 0,0.39 0.943,0.824 1.79,0.824 0.304,0 0.554,-0.264 0.554,-0.586 0,-0.708 -1.027,-0.785 -1.304,-0.098 -0.158,0.391 -0.203,0.391 -0.228,0 -0.035,-0.549 -0.812,-0.683 -0.812,-0.14 m -43.652,0.713 c 0.59,0.089 1.557,0.089 2.148,0 0.591,-0.09 0.107,-0.163 -1.074,-0.163 -1.182,0 -1.665,0.073 -1.074,0.163 m 59.309,-0.14 c 0.461,0.397 2.353,0.634 2.126,0.266 -0.138,-0.223 -0.709,-0.406 -1.27,-0.406 -0.56,0 -0.945,0.063 -0.856,0.14 m 51.14,0.183 c 0,0.177 0.527,0.245 1.172,0.151 0.644,-0.095 1.172,-0.24 1.172,-0.323 0,-0.083 -0.528,-0.151 -1.172,-0.151 -0.645,0 -1.172,0.145 -1.172,0.323 m 4.004,-0.054 c 0.376,0.098 0.991,0.098 1.367,0 0.376,-0.098 0.068,-0.178 -0.684,-0.178 -0.752,0 -1.059,0.08 -0.683,0.178 m 28.447,1.889 c -0.948,2.535 -0.947,2.529 -0.355,2.529 0.251,0 0.353,-0.102 0.227,-0.228 -0.326,-0.327 0.492,-2.506 0.941,-2.506 0.207,0 0.255,-0.195 0.107,-0.434 -0.147,-0.239 -0.051,-0.569 0.214,-0.733 0.315,-0.194 0.343,-0.384 0.08,-0.547 -0.231,-0.142 -0.748,0.675 -1.214,1.919 m -263.759004,-0.809 c -0.776,0.527 -1.52,0.85 -1.653,0.716 -0.133,-0.133 -0.242,-0.027 -0.242,0.237 0,0.269 -0.214,0.358 -0.489,0.203 -0.374,-0.212 -0.382,-0.161 -0.033,0.217 0.425,0.46 1.684,-0.204 3.822,-2.017 0.771,-0.653 -0.048,-0.278 -1.405,0.644 m 21.798,-0.666 c -0.099,0.162 0.723,0.33 1.828,0.374 1.379,0.055 1.826,-0.035 1.427,-0.287 -0.695,-0.44 -2.999,-0.501 -3.255,-0.087 m -5.671,2.312 c 0.238,0.286 0.682,0.521 0.986,0.521 0.444,0 0.458,-0.103 0.067,-0.521 -0.267,-0.287 -0.711,-0.521 -0.986,-0.521 -0.371,0 -0.388,0.133 -0.067,0.521 m 100.480004,4.231 c 0.001,2.149 0.066,2.97801 0.145,1.843 0.08,-1.135 0.079,-2.893 -0.001,-3.906 -0.081,-1.014 -0.145,-0.085 -0.144,2.063 m -95.651004,-2.929 c -0.692,0.297 -0.659,0.339 0.293,0.363 0.591,0.015 1.074,-0.148 1.074,-0.363 0,-0.459 -0.3,-0.459 -1.367,0 m 3.616,-0.131 c 0.27,0.108 0.407,0.333 0.305,0.498 -0.103,0.166 0.264,0.215 0.814,0.11 1.153,-0.221 0.502,-0.873 -0.829,-0.831 -0.429,0.014 -0.56,0.114 -0.29,0.223 m 149.843004,3.06 c -0.001,1.934 0.065,2.774 0.147,1.868 0.082,-0.907 0.083,-2.489 0.002,-3.516 -0.081,-1.027 -0.148,-0.285 -0.149,1.648 m -188.224006,-2.539 c -0.659,0.283 -0.586,0.34 0.465,0.364 0.685,0.015 1.355002,-0.149 1.488002,-0.364 0.289,-0.468 -0.863002,-0.468 -1.953002,0 m 72.898006,-0.036 c -0.364,0.23 0.03,0.386 1.22,0.481 1.109,0.089 1.701,-0.009 1.603,-0.265 -0.199,-0.517 -2.115,-0.664 -2.823,-0.216 m 43.043,1.794 c 0.002,1.289 0.075,1.77 0.162,1.067 0.087,-0.702 0.085,-1.756 -0.004,-2.343 -0.089,-0.587 -0.16,-0.013 -0.158,1.276 m -112.583004,-0.945 c 0.672,0.426 1.524,0.463 1.524,0.066 0,-0.161 -0.466,-0.32 -1.036,-0.353 -0.742,-0.043 -0.881,0.039 -0.488,0.287 m 63.975004,0.457 c 0.617,0.787 1.439,0.888 1.848,0.226 0.194,-0.313 0.063,-0.372 -0.417,-0.188 -0.385,0.148 -0.985,0.046 -1.333,-0.227 -0.564,-0.44 -0.575,-0.419 -0.098,0.189 m 11.231,0.181 c 0.377,0.276 0.823,0.503 0.99,0.503 0.167,0 0.217,-0.227 0.111,-0.503 -0.106,-0.276 -0.552,-0.502 -0.99,-0.502 -0.746,0 -0.753,0.033 -0.111,0.502 m 133.09,2.065 c 0,1.611 0.069,2.27101 0.154,1.465 0.084,-0.806 0.084,-2.124 0,-2.93 -0.085,-0.806 -0.154,-0.146 -0.154,1.465 m -190.989004,-1.893 c -0.178,0.288 -0.106,0.345 0.199,0.156 0.278,-0.172 0.719,0.007 1.058,0.428 0.543,0.675 0.553,0.665 0.156,-0.156 -0.469,-0.966 -0.983,-1.122 -1.413,-0.428 m 253.997004,1.603 c -0.954,1.234 -2.071,2.17101 -3.041,2.55201 -1.131,0.444 -1.413,0.712 -1.078,1.025 0.327,0.306 0.503,0.288 0.633,-0.067 0.098,-0.27 0.34,-0.391 0.537,-0.27 0.196,0.122 0.357,0.025 0.357,-0.216 0,-0.24 0.157,-0.339 0.35,-0.22 0.192,0.119 0.454,-0.058 0.583,-0.393 0.128,-0.33401 0.385,-0.51401 0.57,-0.40001 0.185,0.114 0.744,-0.226 1.243,-0.756 0.498,-0.531 0.754,-0.965 0.568,-0.965 -0.186,0 0.003,-0.258 0.42,-0.574 0.417,-0.315 0.582,-0.581 0.367,-0.591 -0.214,-0.011 -0.152,-0.17 0.14,-0.355 0.291,-0.184 0.379,-0.422 0.195,-0.527 -0.184,-0.106 -1.014,0.685 -1.844,1.757 m -141.748,-1.387 c 0.486,0.094 1.189,0.09 1.563,-0.008 0.373,-0.098 -0.024,-0.174 -0.884,-0.17 -0.859,0.005 -1.165,0.085 -0.679,0.178 m 57.813,0 c 0.486,0.094 1.189,0.09 1.562,-0.008 0.374,-0.098 -0.024,-0.174 -0.883,-0.17 -0.86,0.005 -1.165,0.085 -0.679,0.178 m -197.549006,1.075 c -0.494,0.527 -1.008,0.922 -1.14,0.878 -0.133,-0.045 -0.27,0.079 -0.304,0.275 -0.035,0.195 -0.346,0.514 -0.692,0.707 -0.346,0.194 -0.527,0.517 -0.403,0.71901 0.125,0.202 0.03,0.367 -0.21,0.367 -0.24,0 -0.326,0.178 -0.191,0.397 0.353,0.571 1.066,0.019 0.816,-0.632 -0.115,-0.30101 -0.083,-0.55101 0.071,-0.55701 0.407,-0.015 3.303,-2.762 3.113,-2.952 -0.088,-0.087 -0.565,0.272 -1.06,0.798 m 184.868006,1.383 c 0,1.18201 0.074,1.66501 0.163,1.07401 0.09,-0.59001 0.09,-1.55701 0,-2.14801 -0.089,-0.591 -0.163,-0.107 -0.163,1.074 m 3.106,-1.293 c 0.376,0.098 0.991,0.098 1.367,0 0.376,-0.098 0.068,-0.179 -0.683,-0.179 -0.752,0 -1.06,0.081 -0.684,0.179 m -124.326004,0.801 c 0.233,0.481 0.55,0.84 0.705,0.796 0.154,-0.044 0.721004,0.146 1.258004,0.421 l 0.976,0.50001 -0.971,-0.78101 c -0.533,-0.43 -1.043004,-0.708 -1.133004,-0.618 -0.089,0.089 -0.409,-0.143 -0.711,-0.515 -0.492,-0.609 -0.505,-0.589 -0.124,0.197 m -8.921,1.013 c -0.326,0.393 -0.294,0.521 0.131,0.521 0.309,0 0.653,-0.234 0.763,-0.521 0.11,-0.286 0.051,-0.521 -0.131,-0.521 -0.182,0 -0.525,0.235 -0.763,0.521 m 215.181004,1.87801 c 0,0.253 0.387,0.323 0.976,0.175 0.537,-0.135 0.977,-0.11 0.977,0.056 0,0.165 1.133,0.3 2.519,0.3 3.443,0 2.689,-0.434 -1.25,-0.719 -2.186,-0.158 -3.222,-0.098 -3.222,0.188 m -263.868006,0.374 c -0.644,0.196 -1.515,0.84 -1.935,1.429 -0.757,1.063 -0.757,1.067 0,0.486 0.42,-0.323 0.904,-0.806 1.076,-1.074 0.172,-0.269 1.051,-0.491 1.953,-0.495 1.203002,-0.004 1.484002,-0.107 1.055002,-0.384 -0.672002,-0.434 -0.600002,-0.436 -2.149002,0.038 m 62.317006,-0.407 c -0.006,0.119 0.441,0.822 0.995,1.562 0.939,1.255 0.998,1.28 0.879,0.369 -0.071,-0.537 -0.252,-0.889 -0.404,-0.781 -0.152,0.107 -0.542,-0.156 -0.867,-0.586 -0.325,-0.43 -0.596,-0.684 -0.603,-0.564 m -59.387004,0.532 c 0,0.171 0.441,0.657 0.98,1.081 0.539,0.424 0.881,0.933 0.758,1.131 -0.122,0.197 -0.035,0.359 0.192,0.359 0.713,0 0.457,-0.594 -0.758,-1.758 -0.645,-0.617 -1.172,-0.983 -1.172,-0.813 m 31.25,0.295 c 0,0.178 0.527,0.323 1.172,0.323 0.644,0 1.172,-0.068 1.172,-0.151 0,-0.083 -0.528,-0.228 -1.172,-0.323 -0.645,-0.095 -1.172,-0.027 -1.172,0.151 m 6.055,-0.068 -1.172,0.298 1.051,0.047 c 0.578,0.025 1.16,-0.13 1.293,-0.345 0.132,-0.215 0.187,-0.37 0.12,-0.344 -0.066,0.025 -0.648,0.18 -1.292,0.344 m 37.212004,0.81 c 0.484,0.554 0.762,1.125 0.617,1.27 -0.145,0.145 -0.037,0.264 0.24,0.264 0.351,0 0.434,0.352 0.274,1.157 -0.128,0.636 -0.062,1.262 0.146,1.39 1.12,0.692 0.321,-2.843 -0.89,-3.939 -1.03,-0.932 -1.103,-0.958 -0.387,-0.142 m 8.386,1.925 c 0,0.752 0.081,1.059 0.179,0.683 0.098,-0.376 0.098,-0.991 0,-1.367 -0.098,-0.376 -0.179,-0.068 -0.179,0.684 m -96.124006,1.172 c -0.009,1.074 0.15,1.953 0.353,1.953 0.471,0 0.485,-3.398 0.015,-3.688 -0.194,-0.12 -0.36,0.66 -0.368,1.735 m 73.517006,-0.222 c 0.103,1.837 0.642,2.26 0.642,0.505 0,-0.775 -0.162,-1.509 -0.359,-1.631 -0.198,-0.122 -0.325,0.385 -0.283,1.126 m -66.243006,-0.462 c -0.095,0.268 -0.043,0.928 0.114,1.465 0.249,0.849 0.291,0.786 0.325,-0.489 0.04,-1.487 -0.128,-1.861 -0.439,-0.976 m 8.114002,0 c -0.164,0.376 -0.164,0.991 0,1.367 0.283,0.651 0.305,0.651 0.461,0 0.276,-1.153 -0.086,-2.227 -0.461,-1.367 m 72.711004,3.269 c -0.389,0.52 -0.873,0.844 -1.074,0.72 -0.202,-0.125 -0.366,-0.037 -0.366,0.195 0,0.25 -0.437,0.335 -1.075,0.21 -1.034,-0.203 -1.041,-0.194 -0.189,0.25 1.034,0.539 2.619,-0.11 3.279,-1.342 0.584,-1.093 0.233,-1.113 -0.575,-0.033 m -6.909,-0.44 c 0,0.249 1.498,1.761 1.745,1.761 0.101,0 0.098,-0.224 -0.007,-0.497 -0.194,-0.505 -1.738,-1.628 -1.738,-1.264 m -15.014004,2.835 c -0.844,1.079 -0.911,1.26 -0.256,0.688 0.783,-0.684 1.816,-2.153 1.514,-2.153 -0.061,0 -0.627,0.659 -1.258,1.465 m -65.183002,-0.788 c -0.095,0.165 0.145,0.626 0.533,1.024 0.686,0.705 0.7,0.702 0.489,-0.103 -0.24,-0.918 -0.756,-1.383 -1.022,-0.921 m 94.052006,0.533 c -0.36,1.132 -3.851,4.924 -4.374,4.75 -0.234,-0.078 -0.521,0.013 -0.638,0.203 -0.476,0.769 1.379,0.167 1.936,-0.629 0.331,-0.473 0.77,-0.756 0.976,-0.629 0.205,0.127 0.325,-10e-4 0.266,-0.286 -0.059,-0.286 0.154,-0.459 0.479,-0.387 0.322,0.072 0.469,0.013 0.326,-0.13 -0.143,-0.142 0.165,-0.885 0.684,-1.649 0.882,-1.3 1.168,-2.062 0.774,-2.062 -0.093,0 -0.286,0.369 -0.429,0.819 m -73.543004,0.04 c -0.625,0.626 -0.596,1.118 0.052,0.869 0.287,-0.109 0.521,-0.455 0.521,-0.768 0,-0.687 0.011,-0.685 -0.573,-0.101 m 9.102,0.871 c 0.43,0.346 1.108,0.904 1.508,1.241 0.517,0.435 0.678,0.462 0.555,0.093 -0.095,-0.285 -0.774,-0.843 -1.509,-1.24 -0.961,-0.52 -1.116,-0.546 -0.554,-0.094"
     stroke="none"
     fill="#131b31"
     fill-rule="evenodd" />
  <path
     id="path3"
     d="m 36.959236,-114.45202 c 0.376,0.098 0.991,0.098 1.367,0 0.376,-0.098 0.068,-0.178 -0.684,-0.178 -0.752,0 -1.059,0.08 -0.683,0.178 m -2.701,18.872002 c 0,1.611 0.069,2.27 0.153,1.464 0.084,-0.805 0.084,-2.124 0,-2.929 -0.084,-0.806 -0.153,-0.147 -0.153,1.465 m 7.061,3.906 c 0,3.76 0.058,5.298 0.13,3.418 0.071,-1.88 0.071,-4.956 0,-6.836 -0.072,-1.88 -0.13,-0.342 -0.13,3.418 m 56.392,-0.104 c 0.919,0.082 2.325004,0.081 3.125004,-0.003 0.8,-0.084 0.048,-0.151 -1.670004,-0.15 -1.719,10e-4 -2.374,0.07 -1.455,0.153 m -2.158,7.33 c 0.005,0.86 0.085,1.165 0.178,0.679 0.093,-0.486 0.09,-1.189 -0.008,-1.562 -0.098,-0.374 -0.174,0.024 -0.17,0.883 m 126.628004,23.633 c 0,4.19 0.057,5.903 0.127,3.809 0.071,-2.095 0.071,-5.523 0,-7.617 -0.07,-2.095 -0.127,-0.381 -0.127,3.808 m 12.036,-5.469 c 0,0.752 0.081,1.06 0.179,0.684 0.098,-0.376 0.098,-0.991 0,-1.367 -0.098,-0.376 -0.179,-0.069 -0.179,0.683 m -18.68,6.25 c 0,3.76 0.059,5.298 0.13,3.418 0.072,-1.88 0.072,-4.956 0,-6.836 -0.071,-1.879 -0.13,-0.341 -0.13,3.418 m -207.8560044,-2.734 c 0,1.182 0.073,1.665 0.163,1.074 0.089,-0.591 0.089,-1.557 0,-2.148 -0.09,-0.591 -0.163,-0.108 -0.163,1.074 m 7.8130004,0.781 c 0,1.182 0.073,1.665 0.162,1.074 0.09,-0.59 0.09,-1.557 0,-2.148 -0.089,-0.591 -0.162,-0.107 -0.162,1.074 m 80.061,8.594 c 0.137,0.503 1.752,0.587 11.456004,0.595 l 11.295,0.01 -11.113,-0.114 c -8.261004,-0.084 -11.202004,-0.237 -11.456004,-0.595 -0.249,-0.351 -0.298,-0.323 -0.182,0.104 m 51.265004,0.003 c -0.407,0.659 0.667,0.814 4.717,0.68 l 3.879,-0.129 -4.223,-0.082 c -2.696,-0.052 -4.135,-0.223 -3.98,-0.472 0.132,-0.215 0.153,-0.391 0.046,-0.391 -0.108,0 -0.305,0.177 -0.439,0.394 m 27.825,0.67 c 0.694,0.086 1.924,0.087 2.735,0.003 0.81,-0.085 0.243,-0.155 -1.261,-0.157 -1.504,-0.002 -2.167,0.067 -1.474,0.154 m 29.897,-0.002 c 0.594,0.09 1.473,0.087 1.953,-0.005 0.481,-0.093 -0.005,-0.167 -1.079,-0.164 -1.075,0.003 -1.468,0.079 -0.874,0.169 m 13.281,0 c 0.594,0.09 1.473,0.087 1.954,-0.005 0.48,-0.093 -0.006,-0.167 -1.08,-0.164 -1.074,0.003 -1.467,0.079 -0.874,0.169 m -24.321,4.124 c 0,0.46 -0.445,0.661 -1.661,0.749 -1.343,0.097 -1.667,0.269 -1.698,0.901 -0.029,0.595 0.001,0.618 0.125,0.098 0.121,-0.509 0.559,-0.684 1.711,-0.684 1.46,0 2.425,-0.79 1.766,-1.449 -0.134,-0.134 -0.243,0.04 -0.243,0.385 m -49.532,0.361 c -0.257,0.258 -0.468,0.683 -0.468,0.944 0,0.262 -0.22,0.564 -0.489,0.673 -0.384,0.155 -0.382,0.203 0.01,0.227 0.274,0.017 0.658,-0.39 0.854,-0.904 0.195,-0.515 0.586,-1.028 0.869,-1.141 0.282,-0.113 0.329,-0.22 0.103,-0.237 -0.225,-0.017 -0.621,0.18 -0.879,0.438 m -46.784004,2.948 0.027,3.029 1.557,0.127 c 0.857,0.069 1.705004,0.333 1.885004,0.586 0.225,0.315 0.279,0.275 0.17,-0.127 -0.1,-0.374 -0.743,-0.629 -1.771004,-0.706 l -1.614,-0.119 -0.14,-2.909 -0.14,-2.909 0.026,3.028 m 10.883004,-2.342 c -0.139,0.376 -0.441,0.829 -0.672,1.006 -0.27,0.208 -0.224,0.27 0.13,0.175 0.508,-0.136 1.425,-1.865 0.989,-1.865 -0.107,0 -0.309,0.308 -0.447,0.684 m 24.251,0.28 c -0.121,0.315 -0.13,0.798 -0.019,1.074 0.111,0.276 0.215,0.116 0.232,-0.355 0.026,-0.718 0.3,-0.881 1.691,-1.006 l 1.66,-0.15 -1.672,-0.068 c -1.157,-0.047 -1.74,0.108 -1.892,0.505 m -131.8800044,0.484 c 0.486,0.094 1.189,0.09 1.562,-0.008 0.374,-0.097 -0.024,-0.174 -0.883,-0.169 -0.86,0.004 -1.165,0.084 -0.679,0.177 m 73.0420004,0 c 0.483,0.093 1.275,0.093 1.758,0 0.483,-0.093 0.088,-0.17 -0.879,-0.17 -0.967,0 -1.362,0.077 -0.879,0.17 m 63.379004,0.408 c 0,0.161 0.423,0.293 0.939,0.293 0.517,0 0.858,-0.132 0.758,-0.293 -0.099,-0.162 -0.522,-0.293 -0.939,-0.293 -0.417,0 -0.758,0.131 -0.758,0.293 m 61.445,1.66 c 0,1.181 0.073,1.665 0.163,1.074 0.089,-0.591 0.089,-1.558 0,-2.148 -0.09,-0.591 -0.163,-0.108 -0.163,1.074 m -3.542,-0.391 c 0,0.752 0.081,1.06 0.179,0.684 0.098,-0.376 0.098,-0.991 0,-1.367 -0.098,-0.376 -0.179,-0.069 -0.179,0.683 m -51.151,1.367 c 0.003,1.075 0.079,1.468 0.169,0.874 0.09,-0.594 0.087,-1.473 -0.005,-1.953 -0.093,-0.481 -0.167,0.005 -0.164,1.079 m 25.782,0 c 0.003,1.075 0.078,1.468 0.168,0.874 0.09,-0.594 0.088,-1.473 -0.005,-1.953 -0.093,-0.481 -0.166,0.005 -0.163,1.079 m 33.588,-0.195 c 0,0.967 0.076,1.362 0.169,0.879 0.093,-0.483 0.093,-1.275 0,-1.758 -0.093,-0.483 -0.169,-0.088 -0.169,0.879 m 23.792,0.46 c -0.055,1.746 -0.215,2.255 -0.754,2.396 -0.641,0.167 -0.64,0.181 0.012,0.224 0.916,0.059 1.141,-0.627 0.961,-2.934 l -0.148,-1.904 -0.071,2.218 m -118.714,-0.069 c 0,0.966 0.076,1.362 0.169,0.879 0.094,-0.484 0.094,-1.275 0,-1.758 -0.093,-0.484 -0.169,-0.088 -0.169,0.879 m 46.886,0.781 c 0,1.182 0.073,1.665 0.163,1.074 0.089,-0.591 0.089,-1.558 0,-2.148 -0.09,-0.591 -0.163,-0.108 -0.163,1.074 m 58.542,-0.322 c -0.049,1.377 -0.234,1.871 -0.749,2.006 -0.641,0.167 -0.64,0.181 0.012,0.224 0.886,0.057 1.154,-0.656 0.959,-2.551 -0.151,-1.453 -0.158,-1.441 -0.222,0.321 m -81.158,-0.069 c 0.033,0.86 0.233,0.991 1.673,1.096 1.014,0.073 1.705,0.336 1.816,0.691 0.116,0.367 0.158,0.324 0.119,-0.119 -0.046,-0.52 -0.467,-0.721 -1.694,-0.81 -1.325,-0.097 -1.663,-0.281 -1.792,-0.977 -0.132,-0.707 -0.153,-0.686 -0.122,0.119 m 57.655,0.436 c 0,1.452 -0.081,1.587 -0.838,1.389 -0.598,-0.156 -0.717,-0.098 -0.416,0.202 0.827,0.828 1.645,0.021 1.645,-1.624 0,-0.866 -0.088,-1.575 -0.196,-1.575 -0.107,0 -0.195,0.724 -0.195,1.608 m 54.395,-0.24 c 0.005,0.859 0.085,1.165 0.178,0.679 0.094,-0.486 0.09,-1.189 -0.008,-1.563 -0.098,-0.373 -0.174,0.024 -0.17,0.884 m -95.118,-0.311 c 0.484,0.093 1.275,0.093 1.758,0 0.484,-0.093 0.088,-0.169 -0.879,-0.169 -0.967,0 -1.362,0.076 -0.879,0.169 m 59.295,2.04 c -0.087,0.141 0.357,0.296 0.986,0.344 0.63,0.048 1.145,0.017 1.145,-0.069 0,-0.283 -1.968,-0.538 -2.131,-0.275 m -218.4600044,5.302 c 0.003,1.074 0.079,1.467 0.168,0.873 0.09,-0.593 0.088,-1.472 -0.005,-1.953 -0.093,-0.48 -0.166,0.006 -0.163,1.08 m 73.4320004,-0.195 c 0,0.966 0.076,1.362 0.169,0.878 0.093,-0.483 0.093,-1.274 0,-1.757 -0.093,-0.484 -0.169,-0.088 -0.169,0.879 m -27.548,10.438 c 0.698,0.087 1.841,0.087 2.539,0 0.698,-0.086 0.127,-0.157 -1.269,-0.157 -1.397,0 -1.968,0.071 -1.27,0.157 m 37.895,0.385 c 0.486,0.093 1.189,0.09 1.563,-0.008 0.373,-0.098 -0.024,-0.174 -0.884,-0.17 -0.859,0.004 -1.165,0.084 -0.679,0.178"
     stroke="none"
     fill="#3f7384"
     fill-rule="evenodd" />
  <path
     id="path4"
     d="m 217.42724,-80.843018 c 0.806,0.084 2.124,0.084 2.93,0 0.806,-0.084 0.147,-0.153 -1.465,-0.153 -1.611,0 -2.27,0.069 -1.465,0.153 m -1.891,7.919 c 0,3.545 0.059,4.995 0.131,3.222 0.073,-1.772 0.073,-4.672 0,-6.445 -0.072,-1.772 -0.131,-0.322 -0.131,3.223 m -42.179,23.955 c -0.11,0.285 -0.141,2.174 -0.069,4.199 l 0.13,3.682 0.081,-4.004 c 0.076,-3.764 0.862,-5.989 0.862,-2.442 0,0.86 0.186,1.563 0.414,1.563 0.227,0 0.332,0.132 0.232,0.293 -0.099,0.161 0.313,0.293 0.917,0.293 0.603,0 1.015,-0.132 0.916,-0.293 -0.1,-0.161 -0.533,-0.293 -0.963,-0.293 -0.491,0 -0.677,-0.168 -0.502,-0.451 0.173,-0.28 0.107,-0.345 -0.172,-0.172 -0.313,0.193 -0.451,-0.208 -0.451,-1.307 0,-1.586 -0.925,-2.294 -1.395,-1.068 m -52.38,2.607 c 0,1.612 0.069,2.271 0.153,1.465 0.084,-0.806 0.084,-2.124 0,-2.93 -0.084,-0.805 -0.153,-0.146 -0.153,1.465 m 42.77,-1.172 c -0.082,0.86 -0.012,1.563 0.154,1.563 0.167,0 0.304,-0.703 0.304,-1.563 0,-0.859 -0.07,-1.562 -0.155,-1.562 -0.084,0 -0.221,0.703 -0.303,1.562 m 1.239,2.312 c 0,2.733 -0.144,3.931 -0.488,4.07 -0.292,0.118 -0.213,0.21 0.195,0.228 0.61,0.028 0.684,-0.413 0.684,-4.071 0,-2.255 -0.088,-4.101 -0.196,-4.101 -0.107,0 -0.195,1.743 -0.195,3.874 m 24.902,-3.592 c 0.699,0.087 1.841,0.087 2.539,0 0.699,-0.086 0.127,-0.157 -1.269,-0.157 -1.397,0 -1.968,0.071 -1.27,0.157 m -75.168,2.452 c 0,1.397 0.071,1.968 0.158,1.27 0.087,-0.698 0.087,-1.841 0,-2.539 -0.087,-0.699 -0.158,-0.127 -0.158,1.269 m 74.233,1.367 c -0.001,1.934 0.065,2.774 0.147,1.868 0.081,-0.907 0.082,-2.489 0.002,-3.516 -0.081,-1.027 -0.148,-0.285 -0.149,1.648 m 1.284,-3.02 c -0.102,0.165 0.503,0.235 1.344,0.155 0.842,-0.081 1.53,-0.216 1.53,-0.301 0,-0.291 -2.688,-0.154 -2.874,0.146 m -18.22,1.543 c 0,0.225 -0.351,0.502 -0.781,0.614 -0.645,0.169 -0.769,0.501 -0.713,1.901 l 0.068,1.697 0.15,-1.66 c 0.097,-1.081 0.338,-1.66 0.69,-1.66 0.619,0 1.171,-0.718 0.821,-1.068 -0.129,-0.129 -0.235,-0.05 -0.235,0.176 m 27.475,2.454 c 0,1.611 0.069,2.271 0.154,1.465 0.084,-0.806 0.084,-2.124 0,-2.93 -0.085,-0.806 -0.154,-0.146 -0.154,1.465 m 1.041,-2.164 c 0,0.331 0.264,0.602 0.586,0.602 0.429,0 0.604,0.496 0.654,1.855 l 0.068,1.855 0.152,-1.705 c 0.12,-1.346 -0.018,-1.864 -0.654,-2.457 -0.661,-0.615 -0.806,-0.642 -0.806,-0.15 m 6.371,1.578 c 0.002,1.289 0.075,1.769 0.162,1.067 0.087,-0.702 0.085,-1.756 -0.004,-2.343 -0.089,-0.587 -0.16,-0.013 -0.158,1.276 m 28.916,0.586 c 0,1.611 0.069,2.271 0.154,1.465 0.084,-0.806 0.084,-2.124 0,-2.93 -0.085,-0.806 -0.154,-0.146 -0.154,1.465 m 20.254,-0.762 c -0.069,2.064 0.351,3.106 1.252,3.106 0.213,0 0.097,-0.22 -0.257,-0.489 -0.424,-0.32 -0.693,-1.224 -0.784,-2.636 l -0.139,-2.149 -0.072,2.168 m 2.266,0.256 c -0.105,1.333 -0.048,2.281 0.125,2.106 0.174,-0.174 0.259,-1.265 0.19,-2.423 l -0.125,-2.107 -0.19,2.424 m 1.309,0.506 c 0,1.611 0.069,2.271 0.153,1.465 0.084,-0.806 0.084,-2.124 0,-2.93 -0.084,-0.806 -0.153,-0.146 -0.153,1.465 m -105.916,0.293 c -0.065,2.467 0.013,2.831 0.608,2.826 0.463,-0.004 0.533,-0.102 0.217,-0.303 -0.257,-0.163 -0.531,-1.435 -0.609,-2.826 l -0.141,-2.529 -0.075,2.832 m 55.5,-1.074 c 0,0.967 0.076,1.362 0.169,0.879 0.093,-0.484 0.093,-1.275 0,-1.758 -0.093,-0.484 -0.169,-0.088 -0.169,0.879 m 43.495,-1.185 c 0.164,0.315 0.421,1.193 0.57,1.953 0.269,1.373 0.27,1.374 0.315,0.185 0.025,-0.657 -0.232,-1.536 -0.57,-1.953 -0.338,-0.417 -0.48,-0.5 -0.315,-0.185 m -74.726,2.357 c 0,1.396 0.071,1.967 0.157,1.269 0.087,-0.698 0.087,-1.841 0,-2.539 -0.086,-0.698 -0.157,-0.127 -0.157,1.27 m 12.327,-1.844 c 0.189,0.188 0.848,0.279 1.465,0.202 1.033,-0.129 1.005,-0.156 -0.343,-0.342 -0.84,-0.117 -1.318,-0.057 -1.122,0.14 m 34.502,-0.257 c 0.499,0.148 0.702,0.751 0.816,2.419 l 0.151,2.221 -0.035,-2.34 c -0.03,-2.04 -0.135,-2.35 -0.816,-2.419 -0.573,-0.058 -0.604,-0.026 -0.116,0.119 m 5.998,0.111 c -0.121,0.195 0.159,0.255 0.621,0.135 0.554,-0.145 1.02,0.026 1.368,0.501 0.29,0.397 0.527,0.547 0.527,0.335 0,-1.03 -2.003,-1.802 -2.516,-0.971 m -72.415,2.283 c -0.076,2.263 -0.71,2.78 -0.958,0.781 -0.155,-1.25 -0.158,-1.247 -0.22,0.195 -0.046,1.082 0.094,1.465 0.536,1.465 0.808,0 1.042,-0.756 0.862,-2.787 -0.15,-1.686 -0.153,-1.682 -0.22,0.346 m -25.557,-1.19 c 0.483,0.094 1.275,0.094 1.758,0 0.483,-0.093 0.088,-0.169 -0.879,-0.169 -0.967,0 -1.362,0.076 -0.879,0.169 m 41.61,1.287 c 0,0.967 0.077,1.363 0.17,0.879 0.093,-0.483 0.093,-1.274 0,-1.758 -0.093,-0.483 -0.17,-0.088 -0.17,0.879 m 16.203,-1.287 c 0.483,0.094 1.274,0.094 1.757,0 0.484,-0.093 0.088,-0.169 -0.878,-0.169 -0.967,0 -1.363,0.076 -0.879,0.169 m 46.303,1.483 c 0.003,1.074 0.079,1.467 0.168,0.873 0.09,-0.594 0.088,-1.473 -0.005,-1.953 -0.093,-0.48 -0.166,0.005 -0.163,1.08 m -130.581,-1.042 c 0,0.286 -0.725,0.456 -1.953,0.456 -1.074,0 -1.953,0.133 -1.953,0.295 0,0.4 3.616,0.109 4.076,-0.327 0.2,-0.19 0.244,-0.466 0.097,-0.613 -0.147,-0.147 -0.267,-0.062 -0.267,0.189 m 139.169,1.237 c 0,0.967 0.076,1.362 0.169,0.879 0.094,-0.484 0.094,-1.275 0,-1.758 -0.093,-0.483 -0.169,-0.088 -0.169,0.879 m -41.726,1.142 c 0.123,0.199 -0.046,0.445 -0.375,0.546 -0.463,0.144 -0.449,0.172 0.06,0.128 0.736,-0.065 1.24,-1.035 0.538,-1.035 -0.245,0 -0.346,0.163 -0.223,0.361 m -106.915004,0.703 c 0.698,0.087 1.84,0.087 2.539,0 0.698004,-0.087 0.127,-0.158 -1.27,-0.158 -1.396,0 -1.968,0.071 -1.269,0.158 m 35.156004,0 c 0.698,0.087 1.841,0.087 2.539,0 0.698,-0.087 0.127,-0.158 -1.27,-0.158 -1.396,0 -1.967,0.071 -1.269,0.158"
     stroke="none"
     fill="#878c9c"
     fill-rule="evenodd" />
  <path
     d="M 45.600939,0.5911303 C 35.219943,2.7201303 33.319943,16.45913 42.675943,21.73913 l 2.103996,1.187 -0.107,7.057 -0.106,7.056 -2.290996,0.52 c -11.203,2.543 -18.875003,15.83 -15.636004,27.08 1.254,4.355 1.595,3.735 -4.168999,7.575 l -5.169,3.444 -1.94,-0.627 c -9.1290006,-2.948 -16.8490116,4.203 -14.38201158,13.322 3.20900098,11.869 20.93101158,8.493 20.93101158,-3.987 v -3.125 l 5.036999,-3.401 5.036004,-3.4 1.542,1.32 c 7.831,6.703 19.488986,6.916 27.952986,0.51 l 2.46,-1.861 3.595,2.402 c 1.978,1.322 4.255,2.918 5.06,3.547 l 1.465,1.144 0.004,2.994 c 0.016,12.261 16.389,15.515 20.693,4.114 3.286,-8.705 -5.077,-16.685 -14.221,-13.57 l -1.866,0.636 -5.049,-3.423 c -6.066,-4.112 -5.575,-3.367 -4.634,-7.046 3.151,-12.322 -4.562,-25.969 -15.694,-27.769 -1.842,-0.298 -1.877,-0.453 -1.884,-8.266 l -0.005,-6.366 1.225,-0.666 c 12.154,-6.6 6.382,-24.2989997 -7.02699,-21.5489997 m 4.439,6.407 c 4.05699,1.696 3.81099,7.8129997 -0.379,9.4129997 -4.399,1.681 -8.506996,-3.154 -6.072996,-7.1469997 1.521996,-2.496 3.900996,-3.332 6.451996,-2.266 m -21.15,19.8869997 c -9.834999,5.302 -15.851999,14.362 -17.607999,26.514 -1.291001,8.929 0.359,14.915 3.914,14.204 2.745,-0.549 3.497,-2.075 2.967,-6.019 -1.556,-11.559 4.302,-23.185 14.594003,-28.965 3.547,-1.992 4.351,-3.961 2.454,-6.009 -1.346,-1.452 -3.271,-1.368 -6.321004,0.275 m 31.96599,-0.516 c -2.286,2.13 -1.444,4.411 2.389,6.474 9.719,5.229 15.288,16.416 14.246,28.62 -0.4,4.682 1.322,7.125 4.28,6.071 4.335,-1.545 3.738,-16.494 -1.045,-26.137 -4.881,-9.841 -16.227,-18.422 -19.87,-15.028 m -6.627,18.829 c 14.326,6.608 9.454,28.621 -6.33399,28.621 -16.609996,0 -20.758,-22.853 -5.280996,-29.098 2.916996,-1.178 8.528996,-0.947 11.614986,0.477 m -10.24799,4.213 c -8.079996,3.767 -8.364996,14.759 -0.481996,18.616 10.096986,4.94 19.205986,-8.089 11.473986,-16.412 -2.557,-2.752 -7.63299,-3.77 -10.99199,-2.204 m -30.429,31.745 c 1.890001,1.269 2.616001,3.48 1.791001,5.447 -1.286001,3.063 -4.986001,3.885 -7.3380006,1.632 -3.922011,-3.758 1.049,-10.101 5.5469996,-7.079 m 73.43799,10e-4 c 4.799,3.23 0.297,10.709 -4.635,7.702 -2.98,-1.817 -3.048,-5.745 -0.133,-7.703 1.683,-1.131 3.087,-1.13 4.768,10e-4 m -56.893986,3.972 c -6.206003,6.206 14.477996,12.759 27.358986,8.668 6.595,-2.095 9.182,-3.872 9.182,-6.306 0,-3.135 -2.741,-4.122 -6.358,-2.289 -7.21,3.653 -17.135986,3.787 -24.443986,0.328 -3.405,-1.612 -4.455,-1.685 -5.739,-0.401"
     style="fill:#04c3b2;fill-rule:evenodd;stroke:none"
     id="path1-4" />
</svg>
